<?xml version="1.0" encoding="UTF-8"?><svg xmlns="http://www.w3.org/2000/svg" viewBox="0 0 143.39 168.62"><defs><style>.d{fill:#616160;}.e{fill:#d3c1af;}</style></defs><g id="a"/><g id="b"><g id="c"><path class="d" d="M20.18,96.79c-5.53,.29-10.97,1.32-16.19,3.06-.19,.07-.38,.13-.57,.2v3.23c.1-.03,.2-.06,.29-.1,5.58-2.67,4.34-3.12,16.49-6.34v-.04Z"/><path class="d" d="M134.97,164.81h-50.08s.01-.07,.01-.1c.22-2.07,.32-4.18,.32-6.28,0-13.95-4.76-27.52-13.44-38.4-.01,.01-.01,.02-.02,.03,6.86,9.97,10.42,26.34,10.42,38.37,0,2.12-.11,4.26-.34,6.37H3.8V50.28L69.6,4.63l61.83,42.9-21.3,2.91,.05,.76h33.21L69.6,0,0,48.29v120.33H139.64l.02-25.9h-4.66l-.03,22.09ZM.37,101.19c.98-.41,2-.79,3.05-1.15v3.24c-1.04,.37-2.05,.77-3.05,1.21v-3.3Z"/><g><path class="e" d="M44.4,101.33c0,.12-.04,.89-.16,2.19h0c-.22,2.44-.76,6.76-2.04,12.13-.34,1.44-.74,2.96-1.19,4.53-.51,1.77-1.1,3.61-1.78,5.5-.19,.54-.4,1.09-.61,1.64-.07,.19-.14,.38-.22,.57-1.07,2.77-2.38,5.74-3.98,8.8-.24,.46-.48,.91-.74,1.38-.15,.27-.3,.54-.46,.82-.7,1.25-1.46,2.51-2.27,3.78-1.15,1.8-2.41,3.61-3.78,5.38-.47,.62-.96,1.23-1.47,1.83-4.48,5.44-10.1,10.63-17.13,14.92H3.83c8.5-4.48,15.07-10.31,20.14-16.48,.34-.41,.66-.82,.99-1.23,.99-1.26,1.92-2.53,2.79-3.81,.51-.74,.99-1.47,1.45-2.21,.85-1.35,1.64-2.69,2.37-4.02,.41-.73,.79-1.46,1.16-2.17,1.46-2.85,2.65-5.61,3.63-8.17,.02-.05,.04-.1,.06-.14,.2-.53,.39-1.05,.58-1.56,.65-1.8,1.21-3.57,1.7-5.26,.07-.23,.13-.45,.2-.67,1.98-7.01,2.74-12.8,3.02-15.74h0c.13-1.32,.16-2.06,.16-2.09l1.23,.04h.14l.97,.04Z"/><path class="e" d="M42.72,104.29l.8-.39c4.83-2.37,7.85-5.72,8.98-9.96,2.13-8.01-3.32-16.18-3.55-16.53l-.67-.99-.97,.68c-5.59,3.91-8.73,8.43-9.33,13.46-.87,7.28,3.94,12.82,4.15,13.05l.59,.67Zm4.91-24.52c1.3,2.32,4.05,8.14,2.6,13.58-.88,3.3-3.2,5.99-6.9,8.01-1.14-1.59-3.61-5.69-3.03-10.53,.49-4.02,2.95-7.73,7.32-11.05Z"/><path class="e" d="M36.71,125.03c.49-.03,.79-.07,.85-.08l.89-.13,.11-.89c.66-5.34-.5-9.7-3.43-12.96-5.54-6.16-15.36-6.07-15.78-6.06l-1.19,.02,.04,1.19c.22,6.82,2.29,11.92,6.17,15.17,4.56,3.82,10.22,3.88,12.35,3.75Zm-16.11-17.73c2.66,.18,9.03,1.06,12.79,5.25,2.28,2.54,3.27,5.96,2.93,10.15-1.96,.08-6.74-.08-10.48-3.23-3.1-2.61-4.86-6.7-5.25-12.17Z"/><path class="e" d="M38.4,123.82c.83-1.34,1.7-2.55,2.61-3.63,3.03-3.59,6.48-5.75,10.31-6.42,1.45-.25,2.84-.28,4.14-.15,.83,.08,1.63,.22,2.37,.41,3.92,.96,6.59,3.03,6.75,3.16l.7,.55-.35,.82c-1.53,3.62-3.64,6.3-6.3,8.02-.72,.46-1.48,.86-2.27,1.18-.29,.12-.58,.22-.87,.32-1.24,.4-2.49,.62-3.72,.7-5.71,.36-11-2.24-12.54-3.08-.25-.14-.4-.23-.44-.25l-1.02-.61,.63-1.01Zm16.37,2.02c.49-.16,.97-.36,1.43-.58,.8-.39,1.55-.88,2.26-1.46,1.56-1.3,2.87-3.06,3.93-5.29-.86-.55-2.42-1.42-4.39-2.01-.74-.22-1.54-.4-2.38-.51-1.23-.16-2.54-.17-3.91,.08-3.99,.71-7.56,3.37-10.63,7.92,2.39,1.17,8.35,3.6,13.7,1.85Z"/><path class="e" d="M8.33,123.63c.05-.37,.1-.75,.16-1.13l.18-1.17,.32,.06,.85,.15c.3,.05,4.99,.89,9.55,3.67,2.44,1.48,4.84,3.51,6.5,6.26,.18,.31,.36,.62,.52,.93,.96,1.86,1.51,3.88,1.65,6.05,.08,1.2,.03,2.45-.14,3.74-.05,.37-.11,.74-.18,1.12-.19,1-.45,2.03-.79,3.07l-.04,.13-.23,.73-.42-.02-.47-.02c-.06,0-.36-.02-.84-.08-.4-.05-.93-.12-1.55-.25-.33-.07-.69-.14-1.07-.24-2.93-.73-7.13-2.39-10.24-6.2-3.39-4.14-4.66-9.79-3.77-16.79Zm5.56,15.29c3.07,3.77,7.52,5.15,10.05,5.64,.41,.08,.76,.14,1.06,.18,.23-.81,.4-1.6,.52-2.37,.6-3.67,.06-6.92-1.62-9.7-1.45-2.4-3.6-4.19-5.8-5.51-2.89-1.74-5.88-2.66-7.48-3.06,0,.05,0,.09-.01,.14-.73,6.18,.37,11.11,3.28,14.68Z"/><path class="e" d="M26.27,147.2l.64-.7h0l.14-.15c1.28-1.4,2.59-2.63,3.91-3.67,1.14-.91,2.3-1.69,3.47-2.33,.32-.18,.64-.34,.96-.5h0c.4-.2,.8-.38,1.21-.54,2.2-.9,4.45-1.34,6.72-1.31,8.17,.1,13.6,6.24,13.82,6.5l.32,.37,.27,.3-.23,.34-.27,.41c-3.33,5-7.48,7.84-12.32,8.47-.1,.01-.2,.02-.3,.04-.24,.03-.47,.05-.7,.06-.59,.04-1.17,.04-1.74,.02-5.58-.23-10.54-3.16-13.12-5-1.02-.72-1.67-1.28-1.85-1.44-.02-.01-.03-.03-.04-.04l-.89-.79,.02-.02Zm14.99,4.87c.83,.1,1.68,.12,2.54,.06,.27-.02,.55-.04,.82-.08,3.89-.5,7.29-2.74,10.12-6.66-1.55-1.47-5.83-4.99-11.47-5.06-1.75-.02-3.49,.29-5.22,.92-.73,.27-1.46,.59-2.18,.97-1.05,.56-2.09,1.24-3.13,2.04-1.04,.8-2.06,1.72-3.08,2.75,.23,.17,.5,.37,.8,.58,2.21,1.56,6.29,3.98,10.82,4.47Z"/></g></g></g></svg>