<?xml version="1.0" encoding="UTF-8"?><svg xmlns="http://www.w3.org/2000/svg" viewBox="0 0 111.47 157.27"><defs><style>.d{fill:#fff;fill-rule:evenodd;}</style></defs><g id="a"/><g id="b"><g id="c"><path class="d" d="M97.75,7.83l-.1,.13c-1.67,2.18-3.32,4.37-4.95,6.58-1.63,2.2-3.25,4.42-4.85,6.64l-.1,.14c.69-4.6,.42-9.28-.79-13.82,1.05-.61,1.85-1.43,2.18-2.71,.41-1.58-.13-3-1.14-3.87-1-.87-2.49-1.21-4.04-.58-1.77,.73-2.49,2.85-2.14,4.7,.33,1.74,1.5,3.13,3.3,3.01,1.48,5.58,1.45,11.38-.11,16.93-.03,.09-.04,.18-.04,.27-2.15,3.05-4.26,6.12-6.34,9.21-.92-5.13-2.82-10.05-5.83-14.31,.78-1.26,1.26-2.79,.86-4.29-.3-1.11-.98-1.75-1.77-2.02-1.09-.38-2.5-.03-3.53,1.03-2.4,2.45-.59,7.1,2.86,6.37,2.73,3.87,4.5,8.32,5.4,12.96-2.72-2.08-5.55-4.01-8.53-5.69h0c.19-1.46-.39-2.76-1.29-3.58-.75-.67-1.7-1.01-2.63-.88-.97,.13-1.95,.75-2.6,2.18-.48,1.07-.29,2.68,.47,3.8,.56,.83,1.4,1.38,2.41,1.38,1.06,0,1.96-.53,2.68-1.25,3.47,1.95,6.73,4.26,9.85,6.74l-.02,.03c-1.18,1.77-2.34,3.55-3.5,5.33-2.31,3.57-4.58,7.17-6.81,10.79-2.23,3.63-4.41,7.28-6.55,10.96-1.1,1.89-2.19,3.79-3.27,5.7l-.08,.15c-.48-3.71-1.31-7.34-2.52-10.82,.1-.15,.16-.32,.17-.51,.15-4.25,1.33-8.26,2.75-12.23,1.45,.19,2.88-.43,3.76-1.4,.8-.89,1.15-2.04,.79-3.15-.21-.66-.68-1.32-1.52-1.88-1.76-1.17-3.63-.58-4.72,.69-1.09,1.27-1.38,3.21-.02,4.73l.02,.02c-1.18,3.28-2.21,6.58-2.7,10-1.7-3.84-3.9-7.46-6.65-10.75,1-1.12,1.21-2.93,.72-4.31-.36-1.04-1.1-1.81-2.05-2.05-.63-.16-1.38-.09-2.23,.39-1.88,1.06-2.26,3.15-1.63,4.79,.57,1.48,1.91,2.58,3.64,2.34,4.64,5.54,7.65,12.03,9.28,18.95-3.32-1.88-7.03-3.08-10.79-3.7,.05-1.44-.16-2.97-1.15-4.09-.7-.79-1.47-1.07-2.18-1.06-.67,0-1.32,.28-1.86,.76-.71,.62-1.25,1.58-1.41,2.58-.32,1.9,.78,3.59,2.16,4.29,.77,.39,1.62,.48,2.4,.21,.45-.16,.88-.43,1.26-.86,4.19,.64,8.34,2.01,11.91,4.33,.06,.04,.13,.07,.19,.1,.32,1.72,.55,3.46,.71,5.22,0,.09,.03,.18,.06,.27-2.41,4.33-4.77,8.69-7.07,13.09-4.69,8.98-9.12,18.31-13.71,27.58-.78-6.12-3.73-11.17-7.28-15.98,.16-.25,.21-.57,.1-.87-1.92-5.08-1.03-10.77-.66-16.07,2.93-.89,3.28-5.34,.16-6.4-2.1-.71-3.78,.98-3.71,2.97,.04,1.35,.66,2.37,1.64,3.18-.31,4.53-.94,9.33-.1,13.85-1.18-1.49-2.39-2.99-3.57-4.5-2.99-3.84-5.35-8.3-8.72-11.83,.34-.83,.49-1.78,.24-2.63-.26-.9-.91-1.77-1.73-2.27-.92-.57-2.02-.71-3.06-.11-1.24,.71-1.73,2-1.6,3.27,.13,1.22,.84,2.4,1.96,2.97,.49,.25,1.03,.32,1.57,.28,.4-.03,.81-.13,1.2-.22,2.31,2.41,4.13,5.27,6.01,8.06-3.43-.99-7.24-.99-10.75-.55-.32-.99-.78-2.08-1.7-2.63-2.39-1.43-4.52,1.02-4.37,3.27,.04,.61,.21,1.17,.5,1.72,.7,1.33,1.68,1.85,2.59,1.87,1.18,.03,2.4-.82,2.99-2.29,3.98-.53,8.4-.49,12.08,1.14,.15,.07,.32,.09,.47,.08,.26,.36,.53,.71,.8,1.06,3.71,4.76,7.73,9.26,10.35,14.42-3.81-.16-7.07,.95-10.66,2.25-.3-.87-.8-1.8-1.52-2.25-1.04-.64-2.03-.61-2.82-.21-1.11,.56-1.87,1.94-1.66,3.48,.18,1.32,.92,2.7,2.15,3.33,2.07,1.05,4.01-.53,4.41-2.51,3.7-1.34,7-2.52,11.03-2.1,1.13,2.7,1.85,5.6,1.93,8.82,0,.2,.07,.38,.17,.53-6.9,13.75-14.3,27.27-23.63,39.23-.33,.42-.25,1.02,.17,1.35,.42,.33,1.02,.25,1.35-.17,4.85-6.22,9.19-12.85,13.2-19.73,.11-.03,.21-.08,.31-.15,5.92-4.25,12.14-5.97,19.24-6.13,.06,.08,.13,.15,.21,.21,3.49,2.48,5.73,6.2,7.56,10.02-1.75,3.24,2.11,7.29,5.38,4.62,.7-.57,1.03-1.49,.99-2.43-.04-.89-.42-1.77-1-2.31-1.04-.94-2.43-1.25-3.74-.93-1.63-3.37-3.6-6.63-6.36-9.15,6.98,.27,14.06,2.09,20.98,.11,.38,.43,.84,.78,1.38,1.01,.55,.23,1.13,.34,1.72,.33,.98,0,1.69-.37,2.18-.89,.7-.74,.94-1.86,.74-2.9-.2-1.05-.85-1.99-1.74-2.39-.64-.29-1.41-.34-2.29,.07-.45,.21-.85,.5-1.19,.86-.58,.6-.93,1.26-1.19,2.04-3.6,1.06-7.25,1.03-10.91,.73,3.65-2.16,6.78-5.16,9.56-8.34,.02,0,.04-.01,.07-.02,1.77,.84,3.85-.07,4.5-1.65,.33-.8,.32-1.79-.31-2.83-1.18-1.94-4.01-2.03-5.25-.11-.6,.93-.59,2.16-.34,3.23-.03,.03-.07,.06-.1,.1-3.03,3.47-6.47,6.72-10.62,8.79-.23,.12-.39,.31-.47,.53-2.45-.26-4.89-.54-7.32-.6-3.45-.08-6.7,.15-9.81,.78,2.22-3.36,4.32-6.75,6.17-10.35l.02-.03c1.82,.27,2.99-.82,3.42-2.26,.4-1.38,.04-3.07-1.13-4.03-.92-.75-1.93-.86-2.8-.56-.84,.3-1.56,1.01-1.89,2.02-.49,1.47-.24,2.96,.55,4.22-2.04,3.95-4.4,7.64-6.88,11.34-.06,.09-.11,.2-.13,.3-2.56,.74-5.03,1.79-7.44,3.19,7.44-13.23,13.85-27.2,20.61-40.62,.32,.12,.69,.06,.96-.18,1.7-1.49,3.67-2.52,5.79-3.24,.12,.17,.3,.3,.52,.37,5.71,1.59,9.82,6.69,12.95,11.46-.24,1.43,.39,2.88,1.4,3.73,.66,.56,1.46,.86,2.27,.8,.8-.06,1.64-.45,2.35-1.41,1.24-1.67,.31-4.18-1.51-4.96-1.07-.46-2.27-.29-3.26,.25-2.97-4.42-6.78-8.93-11.76-11.04,2.96-.63,6.06-.81,8.95-.89,1.85-.05,3.68-.06,5.5-.08,.11,.09,.24,.15,.38,.19,3.06,.74,5.53,2.43,7.97,4.18,2.47,1.77,4.9,3.6,7.75,4.74,.12,1.32,.87,2.72,1.89,3.56,.7,.58,1.52,.91,2.34,.87,.83-.03,1.7-.42,2.44-1.41,.76-1.01,.73-2.18,.24-3.22-.44-.92-1.27-1.71-2.14-2.1-1.3-.58-2.83-.26-4.04,.32-.06,.03-.12,.07-.18,.11-2.64-1.08-4.88-2.81-7.18-4.45-1.45-1.04-2.93-2.05-4.51-2.89,5.97-.19,11.82-.82,17.56-3.4,.08-.03,.15-.08,.21-.13,.37,.28,.77,.52,1.15,.73,.6,.35,1.2,.55,1.89,.64,2.23,.28,3.51-1.36,3.66-3.18,.15-1.79-.84-3.66-2.9-3.9-.65-.07-1.4,.18-1.97,.45-.63,.29-1.17,.74-1.6,1.28-.56,.7-1.08,1.55-1.35,2.41-2.39,1.06-4.81,1.77-7.24,2.25,2.48-2.54,4.47-5.41,6.05-8.61,.43,.13,.88,.17,1.34,.15,.55-.03,1.11-.16,1.59-.44,1.98-1.17,1.97-3.3,1.05-4.69-.41-.62-.99-1.08-1.65-1.28-.95-.28-2.1-.08-3.1,1.22-.36,.46-.59,1.02-.75,1.58-.21,.72-.19,1.51-.04,2.24-1.85,3.85-4.3,7.19-7.51,10.04-.1,.09-.17,.19-.23,.3-5.45,.66-11.01,.42-16.69,.58-.59,.02-1.18,.04-1.78,.07,3.31-3.01,5.95-6.66,8.27-10.49,1.35,.65,2.58,.36,3.44-.35,1.3-1.08,1.73-3.27,.29-4.92-.67-.77-1.78-1.28-2.85-1.3-1.19-.03-2.31,.51-2.83,1.79-.5,1.26-.2,2.53,.37,3.67-2.6,4.29-5.59,8.38-9.56,11.51-.11,.09-.2,.2-.26,.32-4.29,.43-8.64,1.41-12.19,3.74l.07-.13c.4-.78,.8-1.57,1.21-2.35,.62-1.19,1.24-2.38,1.87-3.57,.97-1.83,1.95-3.65,2.93-5.46,2.44-4.48,4.94-8.92,7.5-13.33,1.31-2.25,2.64-4.49,3.98-6.73l.02-.03c.17-.04,.32-.12,.45-.24,4.4-4.23,9.48-7.38,14.96-9.62,.07,.03,.15,.05,.23,.07,6.39,1.08,12.25,3,17.21,7.28,.07,1.9,1.28,3.53,3.17,4.18,1.37,.47,3.32,.32,4.12-1.15,.46-.85,.52-1.64,.35-2.34-.25-1-1.02-1.84-2.06-2.37-1.43-.72-3.31-.81-4.65-.05-4.4-3.69-9.44-5.69-14.93-6.89,5.39-1.79,11.07-2.76,16.8-3.04,.71,1.15,2.09,1.9,3.44,2.01,1.04,.09,2.04-.21,2.73-.88,.47-.46,.81-1.11,.89-1.98,.19-2.09-1.52-4.45-3.86-3.85-1.39,.36-2.49,1.48-3.06,2.77-2.49,.12-4.98,.36-7.44,.74,1.72-1.82,3.33-3.72,4.84-5.73,1.46,.66,3.04,.16,4.02-.84,.71-.73,1.08-1.71,.93-2.71-.1-.65-.43-1.33-1.09-1.93-1.46-1.33-3.39-1-4.63,.12-1.15,1.03-1.68,2.69-.77,4.23-1.97,2.63-4.12,5.06-6.47,7.37-.03,.03-.05,.06-.08,.09-7.97,1.64-15.55,4.8-22.05,9.79l.05-.09c2.1-3.4,4.23-6.78,6.41-10.13,2.17-3.35,4.39-6.68,6.63-9.98l.06-.09c.09-.03,.17-.06,.25-.12,2.7-1.77,5.53-3.04,8.67-3.71,.57,1.2,1.48,1.76,2.39,1.86,1.63,.19,3.52-1.17,3.72-3.69,.12-1.49-.5-2.96-1.53-3.56-.76-.44-1.77-.52-2.97,.23-1.26,.79-1.89,1.96-2.25,3.33-2.04,.45-3.95,1.14-5.79,2.04,2.39-3.45,4.83-6.88,7.3-10.27,.17,0,.34-.04,.49-.13,3.76-2.2,7.89-2.84,12.14-3.36,.47,1.44,1.62,2.33,2.84,2.56,1.59,.3,3.41-.46,4.17-2.76,.7-2.14-.77-4.95-3.31-4.51-1.53,.26-2.62,1.24-3.43,2.49-.13,.07-.24,.18-.33,.3-3.54,.44-7,.96-10.26,2.27,1.86-2.51,3.74-5.01,5.64-7.49,1.44,.17,2.98-.36,4.08-1.29,.98-.83,1.58-1.96,1.55-3.13-.02-.8-.34-1.63-1.09-2.42-1.74-1.81-4.9-1.26-6.06,.87-.67,1.22-.75,2.66-.35,3.96-.03,.03-.06,.07-.08,.11-.24,.38-.18,.85,.11,1.16h0ZM52.89,142.08c-.73,1.52,.99,3.4,2.5,2.16,.24-.2,.3-.54,.28-.86-.02-.37-.13-.75-.38-.97-.66-.6-1.61-.71-2.41-.33h0ZM17.75,109.1c-.12-.12-.21-.28-.26-.46-.08-.34-.2-.77-.38-1.16-.13-.28-.28-.55-.51-.69-.35-.22-.68-.26-.94-.13-.47,.24-.7,.86-.62,1.51,.1,.73,.44,1.53,1.12,1.87,.76,.39,1.37-.21,1.6-.94h0Zm24.15,8.43c.17-.07,.36-.1,.56-.06,.74,.14,1.21-.31,1.38-.89,.2-.68,.07-1.53-.51-2-.31-.26-.65-.33-.94-.23-.33,.12-.58,.42-.71,.82-.27,.82-.16,1.64,.23,2.36h0ZM4.38,87.52s-.02-.05-.02-.07c-.12-.39-.24-.84-.42-1.24-.13-.27-.28-.53-.54-.68-.47-.28-.88-.05-1.13,.31-.23,.34-.37,.77-.34,1.18,.02,.34,.12,.65,.28,.95,.28,.53,.58,.84,.95,.85,.56,.02,1.01-.55,1.23-1.3h0Zm64.52,42.21c.19,.22,.42,.41,.7,.52,.3,.13,.63,.19,.95,.18,.36,0,.62-.1,.8-.28,.29-.31,.33-.79,.25-1.23-.08-.42-.28-.84-.64-1-.2-.09-.43-.06-.7,.06-.23,.11-.44,.26-.61,.45-.37,.38-.58,.8-.75,1.3h0Zm-2.7-10.24s.03,.03,.05,.04c.79,.7,1.95,.38,2.26-.39,.13-.32,.08-.7-.17-1.1-.45-.74-1.52-.8-1.99-.07-.29,.44-.27,1-.16,1.53h0ZM10.4,77.14c.23-.47,.38-1.02,.23-1.52-.14-.46-.48-.91-.9-1.17-.33-.2-.72-.29-1.09-.08-.53,.3-.7,.87-.65,1.41,.06,.59,.38,1.18,.93,1.46,.23,.12,.5,.09,.76,.06,.24-.04,.48-.09,.72-.15h0Zm15.38,1.52s.04-.01,.06-.02c1.37-.29,1.61-2.31,.23-2.78-.71-.24-1.19,.42-1.17,1.09,.02,.73,.37,1.27,.89,1.71h0Zm42.91,22.98c-.12,.59,.06,1.18,.39,1.64,.32,.44,.78,.77,1.27,.72,.32-.04,.63-.25,.91-.63,.52-.7,.04-1.72-.72-2.05-.62-.26-1.32-.05-1.85,.33h0Zm20.04-5.14c-.03,.88,.51,1.89,1.21,2.47,.31,.26,.66,.45,1.03,.43,.35-.01,.68-.24,.99-.65,.29-.38,.23-.83,.04-1.23-.25-.51-.71-.96-1.19-1.18-.66-.3-1.42-.13-2.08,.15h0ZM41.15,61.02c.06-1,.03-2.1-.66-2.87-.93-1.05-1.95,.21-2.13,1.32-.14,.85,.25,1.61,.81,2.05,.32,.25,.7,.41,1.07,.35,.37-.06,.68-.34,.91-.85h0Zm30.71,12.62c.18-.02,.37,.02,.54,.11,.58,.31,1.11,.25,1.47-.05,.58-.48,.72-1.46,.08-2.19-.34-.39-.9-.63-1.44-.64-.41,0-.82,.14-1,.58-.3,.76-.01,1.51,.35,2.19h0Zm22.58,8.86c.33,.3,.76,.52,1.13,.73s.74,.35,1.17,.4c.96,.12,1.44-.65,1.5-1.43,.07-.81-.27-1.72-1.21-1.83-.32-.04-.67,.15-.95,.28-.36,.17-.67,.44-.92,.75-.27,.33-.53,.71-.73,1.1h0ZM44.25,43.8c.06-.15,.15-.28,.28-.39,.7-.58,.78-1.71,.49-2.54-.14-.38-.34-.73-.69-.82-.24-.06-.51,.02-.83,.2-.95,.53-1.09,1.6-.78,2.43,.25,.64,.8,1.16,1.52,1.12h0Zm47.17,30.5h.02c.3,.15,.62,.19,.95,.17,.24-.01,.49-.06,.71-.18,.82-.48,.81-1.36,.45-1.94-.2-.33-.51-.6-.87-.55-.26,.04-.52,.24-.77,.57-.21,.27-.33,.61-.42,.93-.09,.32-.1,.66-.06,.99h0Zm-34.36-29.98c.91,.28,1.86-.1,2.42-.71,.33-.36,.53-.82,.39-1.28-.1-.31-.35-.6-.75-.87-.82-.54-1.69-.25-2.2,.34-.51,.59-.68,1.49-.05,2.19,.09,.1,.15,.21,.19,.33h0Zm43.38,11.43c.04,1.12,.76,2.08,1.87,2.46,.35,.12,.78,.19,1.17,.13,.25-.04,.5-.13,.63-.38,.63-1.17-.42-2.02-1.54-2.33-.72-.2-1.53-.21-2.14,.12h0Zm-34.27-27.41c.15-.81-.16-1.55-.66-2-.31-.28-.7-.46-1.08-.4-.44,.06-.81,.42-1.11,1.07-.2,.45-.11,1.09,.13,1.62,.2,.44,.52,.85,1,.85,.75,0,1.29-.55,1.72-1.13h0Zm36.91,15.04c.42,.53,1.15,.85,1.84,.9,.46,.04,.92-.04,1.22-.33,.19-.18,.29-.45,.33-.79,.05-.5-.12-1.05-.44-1.43-.24-.3-.6-.49-1.03-.38-.95,.24-1.63,1.13-1.92,2.03h0Zm-32.01-24.11c.58-.86,1.01-1.89,.73-2.93-.1-.37-.29-.62-.55-.71-.48-.17-1.07,.09-1.52,.56-1.19,1.21-.42,3.67,1.34,3.08h0Zm27.9,15.89c.12,.03,.25,.08,.35,.16,1.45,1.06,3.53-.82,2.09-2.12-.65-.59-1.5-.37-2.05,.13-.5,.45-.78,1.17-.4,1.84h0Zm-6.85-7.69c.09,.11,.15,.23,.19,.37,.21,.83,.58,1.31,1.08,1.36,.78,.09,1.48-.74,1.58-1.94,.06-.71-.09-1.46-.58-1.74-.26-.15-.58-.06-.99,.2-.68,.42-1.04,1.04-1.28,1.75h0Zm-6.47-21.47c.76-.38,1.41-.84,1.64-1.72,.2-.79-.03-1.5-.54-1.94-.51-.44-1.27-.58-2.05-.25-.94,.39-1.17,1.59-.98,2.57,.16,.85,.69,1.65,1.65,1.38,.1-.03,.19-.04,.29-.04h0Zm20.37,8.73c.17,.91,.76,1.51,1.46,1.64,.79,.15,1.61-.34,1.98-1.48,.16-.5,.09-1.09-.17-1.53-.2-.34-.54-.57-.99-.49-1.06,.18-1.75,.97-2.28,1.85h0Zm-6.17-8.07c.9,.12,1.89-.27,2.58-.87,.51-.44,.89-1,.87-1.61-.01-.38-.19-.77-.55-1.14-.86-.9-2.42-.59-3,.46-.54,.98-.45,2.2,.09,3.15h0Z"/></g></g></svg>