<?xml version="1.0" encoding="utf-8"?>
<!-- Generator: Adobe Illustrator 26.2.1, SVG Export Plug-In . SVG Version: 6.00 Build 0)  -->
<svg version="1.1" id="Capa_1" xmlns="http://www.w3.org/2000/svg" xmlns:xlink="http://www.w3.org/1999/xlink" x="0px" y="0px"
	 viewBox="0 0 123.2 161" style="enable-background:new 0 0 123.2 161;" xml:space="preserve">
<style type="text/css">
	.st0{fill-rule:evenodd;clip-rule:evenodd;fill:#D7B49C;}
	.st1{fill:#CDC2BF;}
	.st2{fill:#FFFDFB;}
	.st3{fill:#D2D2D2;}
	.st4{fill:#D7B49C;}
	.st5{fill:#659F80;}
	.st6{fill:#616160;}
</style>
<g id="a">
</g>
<g id="b">
	<g>
		<g id="c_00000183236959301480134030000001752096095084215455_">
			<path class="st0" d="M14,26.3c0,0.1,0,0.2,0.1,0.3c2.1,4.2,4.2,8.3,6.4,12.4c-2.9-1.4-6.4-3-9.8-3.7c-3.1-0.6-6.1-0.6-8.8,0.6
				c-1.3,0.6-1.8,1.7-1.9,2.9C-0.1,40,0.2,41.2,0.8,42c1.4,2.3,4.2,3.5,6.8,3.7c5,0.3,10.1-1.8,14.9-3.1c4.8,8.6,9.8,17.1,15.2,25.3
				c-2.9-0.5-7.1-1-10.9-0.7c-3.2,0.2-6.1,1.1-7.7,2.8c-1,1-1,2.4-0.5,3.6c0.5,1.1,1.4,2,2.4,2.4c2.6,1.1,5.6,0.4,8.1-0.6
				c3.5-1.4,6.8-3.2,10.3-4.7c0,0,0.1,0,0.1,0c3,4.6,6.2,9.2,9.4,13.7c0,0.1,0.1,0.2,0.2,0.3c0,0.1,0.1,0.1,0.1,0.1
				c2.6,3.6,5.3,7.2,8,10.8c-2.4-0.6-4.7-0.9-7.2-1c-1.7-0.1-3.4,0-5.1,0.3c-1.7,0.3-3.7,1.2-4.9,2.4c-1,0.9-1.4,2-1.2,3.1
				s1.1,2.2,3.2,3.1c2.8,1.2,6.4,0.4,9.1-0.7c2.9-1.2,5.5-2.9,8.2-4.4c3.6,4.6,7.3,9.1,11.1,13.5c0,0.2,0.1,0.5,0.3,0.7
				c0.1,0.1,0.3,0.2,0.4,0.2c0.1,0.1,0.2,0.2,0.3,0.3c3.1,3.5,6.2,7,9.4,10.4c-2.6-0.4-5.3-0.6-7.9-0.6c-4.5,0.1-9.7,0.9-13.6,3.5
				c-1.1,0.7-1.5,1.4-1.7,2.2c-0.2,0.8,0.1,1.5,0.6,2.2c1.3,1.6,4.3,2.8,5.9,2.9c6.7,0.3,13.6-4.1,19.3-7.4
				c3.7,3.8,7.4,7.6,11.3,11.3c-0.1,0.4,0.2,0.9,0.7,1c0.1,0,0.3,0,0.4,0c8.2,7.8,16.8,15.3,25.7,22.3c0.4,0.3,1,0.2,1.3-0.1
				s0.2-1-0.2-1.3c-8.9-7-17.4-14.4-25.6-22.2c0-0.1,0-0.1-0.1-0.2l-0.1-0.2c1.1-2.9,3-5.4,3.9-8.4c0.8-2.6,1.2-5.3-0.1-7.8
				c-0.8-1.8-1.9-2.4-2.9-2.5c-0.9-0.1-1.9,0.4-2.7,1.3c-1,1.1-1.7,2.8-1.9,4.2c-0.2,1.9-0.1,3.8,0.1,5.7c0.2,1.7,0.4,3.5,0.8,5.2
				c-7.5-7.3-14.7-14.9-21.5-22.8v0c3.1-3.1,6.5-6.4,7.7-10.6c0.5-1.6,0.2-4.2-0.7-5.9c-0.6-1-1.3-1.7-2.3-1.9
				c-0.9-0.2-2,0.1-3.3,1.2c-2.4,2.3-3.1,6.5-3.3,9.6c-0.1,1.8-0.1,3.6-0.1,5.4c-7-8.2-13.7-16.7-20-25.4c2.5-2.2,5-4.4,7.4-6.6
				c1.8-1.6,3.6-3.3,4.9-5.3c0.9-1.4,1.7-3.8,1.4-5.6c-0.1-1.1-0.6-2-1.4-2.4c-0.7-0.4-1.8-0.6-3.4,0.1c-3,1.2-5.1,3.8-6.7,6.5
				c-2.1,3.5-3,7.3-3.8,11.2c-6.1-8.5-11.8-17.2-17.2-26.2l0,0c2.8-2,5.7-3.8,8.3-6.1c2.8-2.4,5.8-5.8,6-9.6c0.2-2.9-0.8-4.5-2-5.1
				c-1.2-0.6-2.7-0.6-4.3,0.1c-2.1,0.8-4.3,2.6-5.4,4.3C33.7,41,32.7,43,32,44.9c-0.9,2.6-1.4,5.3-1.5,8
				C25.2,44.1,20.3,35,15.7,25.8c0-0.2-0.1-0.4-0.2-0.6c0-4.5,1.6-8.9,1.8-13.4c0.1-1.8,0-3.8-0.4-5.6c-0.5-2.2-2-4.4-3.9-5.5
				c-1.4-0.8-2.9-1.1-4.3-0.4C7.8,0.8,7,1.5,6.3,2.7C4,6.6,4.6,11.1,6.2,15.1C7.9,19.5,10.7,22.9,14,26.3L14,26.3z M96.2,134.2
				c1.1-2.1,2.3-4.1,3-6.3c0.6-2.1,1.1-4.4,0.1-6.5c-0.4-0.9-0.9-1.4-1.4-1.5c-0.4,0-0.8,0.3-1.2,0.7c-0.8,0.8-1.3,2.1-1.4,3.2
				c-0.2,1.8,0,3.6,0.1,5.4C95.6,130.9,95.8,132.6,96.2,134.2L96.2,134.2L96.2,134.2z M81.5,125.3c-2.8-0.4-5.6-0.7-8.4-0.7
				c-4.2,0.1-9.1,0.8-12.6,3.2c-0.5,0.3-0.8,0.6-0.9,1c0,0.2,0,0.4,0.1,0.5c0.2,0.3,0.4,0.5,0.7,0.8c1.2,0.9,3,1.6,4,1.7
				C70.3,132.1,76.4,128.3,81.5,125.3L81.5,125.3z M72.8,109.3c2.5-2.5,5.1-5.3,6.1-8.7c0.4-1.2,0.2-3.2-0.6-4.6
				c-0.3-0.5-0.6-0.9-1-1c-0.5-0.1-1,0.2-1.6,0.8c-2.1,2-2.6,5.7-2.8,8.5C72.8,105.9,72.8,107.6,72.8,109.3L72.8,109.3L72.8,109.3z
				 M57.4,97.5c-2.4-0.6-4.9-1-7.4-1.1c-1.6-0.1-3.2,0-4.7,0.3c-1.4,0.2-2.9,0.9-3.9,1.9c-0.5,0.5-0.8,1-0.7,1.5
				c0.1,0.7,0.8,1.2,2.1,1.8c2.4,1,5.4,0.3,7.7-0.7C53,100.1,55.2,98.8,57.4,97.5L57.4,97.5L57.4,97.5z M51.3,81.4
				c2-1.8,3.9-3.5,5.8-5.2c1.7-1.5,3.4-3.1,4.6-5c0.6-0.9,1.1-2.3,1.2-3.5c0-0.5,0-1-0.1-1.3c-0.1-0.2-0.2-0.5-0.4-0.6
				c-0.4-0.2-1-0.1-1.8,0.2c-2.6,1-4.4,3.4-5.8,5.7C52.9,74.7,52,78,51.3,81.4L51.3,81.4z M37.2,69.7c-2.8-0.4-6.8-0.9-10.3-0.6
				c-2.7,0.2-5.2,0.8-6.5,2.2c-0.4,0.5-0.4,1.1-0.2,1.6c0.3,0.7,0.8,1.2,1.5,1.5c2.1,0.9,4.7,0.2,6.7-0.6
				C31.5,72.6,34.3,71.1,37.2,69.7L37.2,69.7L37.2,69.7z M32.3,53.4c2.4-1.7,4.8-3.2,7-5.1c2.4-2.1,5.2-5,5.3-8.3
				c0.1-1.9-0.2-3-1-3.4c-0.7-0.4-1.7-0.2-2.7,0.2c-1.8,0.7-3.6,2.2-4.6,3.6c-1.1,1.6-1.9,3.4-2.6,5.2
				C32.9,48.1,32.4,50.7,32.3,53.4C32.3,53.4,32.3,53.4,32.3,53.4z M20.8,41.2c-3-1.5-6.8-3.3-10.5-4.1c-2.7-0.5-5.3-0.6-7.6,0.5
				c-0.6,0.3-0.8,0.8-0.9,1.4c-0.1,0.7,0.2,1.5,0.5,2.1c1.1,1.8,3.3,2.6,5.3,2.8C12.1,44.2,16.6,42.5,20.8,41.2L20.8,41.2L20.8,41.2
				z M13.7,23.4c0.3-3.9,1.5-7.7,1.7-11.6c0.1-1.7,0-3.5-0.3-5.1c-0.4-1.7-1.6-3.4-3.1-4.3C11.2,1.8,10.3,1.6,9.4,2
				C8.8,2.3,8.3,2.8,7.8,3.6c-2,3.4-1.4,7.4,0,10.8C9.2,17.9,11.3,20.7,13.7,23.4L13.7,23.4L13.7,23.4z"/>
		</g>
	</g>
</g>
<g>
	<circle class="st1" cx="-146.2" cy="-276.5" r="43.9"/>
	<circle class="st2" cx="-42.2" cy="-276.5" r="43.9"/>
	<circle class="st3" cx="61.9" cy="-276.5" r="43.9"/>
	<circle class="st4" cx="166" cy="-276.5" r="43.9"/>
	<circle class="st5" cx="280.2" cy="-276.5" r="43.9"/>
	<circle class="st6" cx="384.2" cy="-276.5" r="43.9"/>
</g>
</svg>
