<?xml version="1.0" encoding="UTF-8"?><svg xmlns="http://www.w3.org/2000/svg" viewBox="0 0 110.25 159.66"><defs><style>.d{fill:#fffdfb;fill-rule:evenodd;}</style></defs><g id="a"/><g id="b"><g id="c"><path class="d" d="M89.56,18.23c3.69-.65,7.51-.21,11.13,.62,.39,.09,2.14,.32,2.95,.63,.44,.17,.7,.43,.8,.62,.15,.28,.2,.74,.07,1.27-.17,.73-.64,1.69-.81,2.06-.32,.69-.69,1.35-1.1,1.98,1.6,1.32,3.24,2.53,5.15,3.39,.14,.07,1.72,.59,2.04,.78,.37,.22,.44,.53,.45,.66,.03,.29-.07,.7-.35,1.11-.36,.54-1.02,1.18-1.25,1.43-1.74,1.9-3.91,3.34-6.13,4.61-8.38,4.79-20.15,6.58-29.57,4.11-.17,.14-.34,.28-.51,.42-.15,.13-.34,.19-.52,.19-4.53,8.26-8.92,16.7-13.31,25.2,3.95-.63,8.17-.52,12.1,.05,2.65,.38,5.22,1.14,7.79,1.89,2.59,.76,5.17,1.49,7.86,1.83,.48,.06,1.66,.02,2.52,.14,.54,.07,.98,.23,1.23,.42,.25,.19,.34,.41,.36,.6,.03,.18,0,.37-.09,.55-.07,.13-.19,.27-.39,.4-.17,.11-.53,.21-.7,.31-.55,.35-1.12,.63-1.71,.91-2.57,1.19-5.39,2.08-8.17,2.62-7.37,1.44-17.65-.32-22.15-7.11-2.46,4.76-4.92,9.54-7.41,14.31,0,.04-.01,.08-.03,.12-.04,.15-.12,.27-.23,.37-2.88,5.5-5.79,10.99-8.78,16.43,7.53-.94,14.39,.96,21.25,4.19,1.57,.74,3.1,1.58,4.68,2.3,.26,.12,.71,.16,1.12,.23,.41,.07,.78,.15,1.01,.26,.35,.16,.54,.4,.62,.62,.11,.28,.12,.64-.21,1.05-.38,.46-1.24,.84-2.34,1.04-2.06,.37-5.07,.28-6.14,.28-7.55-.02-15.99-1.83-21.27-7.66-2.4,4.33-4.86,8.63-7.38,12.89,.02,.11,.01,.23-.02,.35-.08,.26-.27,.46-.51,.54-3.23,5.4-6.56,10.72-10.06,15.92,6.27-.53,11.72,1.7,17.56,3.95,1.76,.68,3.51,1.35,5.3,1.97,.67,.23,1.33,.47,2.01,.66,.23,.06,.73,.09,.98,.15,.24,.06,.4,.16,.48,.23,.29,.25,.34,.54,.28,.82-.03,.15-.12,.42-.49,.62-4.38,2.27-10.03,2.81-15.29,1.72-5.05-1.05-9.72-3.6-12.59-7.53-5.67,8.26-11.76,16.19-18.4,23.65-.3,.34-.82,.37-1.16,.07-.34-.3-.37-.82-.07-1.16,11.3-12.69,20.96-26.74,29.75-41.42-7.02-2.47-12.34-8.5-14.32-15.62-.32-1.13-1.07-3.89-1-5.97,.04-1.09,.32-2.01,.85-2.57,.22-.23,.45-.29,.64-.3,.18,0,.36,.03,.53,.14,.13,.08,.28,.22,.39,.43,.12,.22,.21,.67,.34,.87,.39,.63,.8,1.24,1.23,1.84,1.14,1.6,2.32,3.19,3.55,4.73,3.4,4.24,7.56,8.54,9.37,13.78,5.7-9.68,11.05-19.6,16.27-29.57-.04-.03-.09-.06-.12-.1-6.91-2.42-12.9-8.02-15.38-14.9-.91-2.53-1.44-5.27-1.13-7.95,.1-.91,.28-1.82,.54-2.7,.07-.24,.11-.79,.18-1.06,.06-.25,.18-.41,.26-.5,.24-.25,.51-.31,.78-.26,.16,.03,.43,.12,.63,.48,1.55,2.8,2.72,5.66,4.55,8.35,3.77,5.55,8.5,10.41,10.64,16.83,4.16-7.98,8.25-15.99,12.37-23.91-.03-.07-.06-.15-.07-.24-5.06-2.16-10.44-7.62-12.93-13.61-1.79-4.3-2.1-8.87,.12-12.71,.18-.32,.42-.41,.6-.45,.22-.05,.44-.02,.65,.12,.12,.07,.26,.21,.38,.43,.11,.22,.22,.67,.34,.86,.36,.6,.74,1.19,1.14,1.76,1.21,1.75,2.55,3.4,3.8,5.11,3.7,5.04,6.56,10.02,7.33,16.09,2.67-5.1,5.35-10.16,8.09-15.15-.07-.12-.11-.25-.11-.4,0-.11,0-.23,0-.34-.3-.35-.58-.71-.85-1.08-7.16-5.43-10.04-14.58-10.75-23.34-.29-3.56-.38-7.12,.7-10.57,.03-.09,.59-1.43,1.07-2.35,.26-.5,.52-.88,.68-1.01,.26-.22,.51-.25,.69-.23,.18,.02,.35,.09,.5,.22,1.92,1.76,3.42,3.46,5.71,4.74,.68-1.59,1.54-3.34,2.45-4.63,.9-1.27,1.9-2.06,2.78-2.13,.24-.02,.68,.11,1.08,.59,.65,.79,1.69,2.85,1.9,3.19,1.97,3.28,3.1,6.83,3.37,10.57,.3-.41,.6-.81,.91-1.2,1.8-2.3,4.03-4.84,6.79-6,.24-.1,1.94-.75,2.74-.76,.6-.01,.95,.28,1.1,.56,.52,1.02,.51,2.6,.21,4.29-.41,2.26-1.31,4.73-1.7,6.03-.1,.32-.2,.64-.3,.95h0Zm-44.63,122.74c-3.71,1.34-8.07,1.54-12.17,.69-4.61-.96-8.91-3.25-11.55-6.82,6.23-.69,11.59,1.57,17.35,3.79,1.78,.69,3.55,1.37,5.35,1.99,.34,.12,.68,.24,1.02,.35h0Zm-28.65-45.79c.32,.5,.66,.99,1,1.47,1.16,1.63,2.36,3.24,3.61,4.8,3.38,4.22,7.61,8.46,9.25,13.75-6.34-2.37-11.12-7.89-12.92-14.38-.25-.9-.81-2.9-.93-4.67-.02-.34-.03-.66,0-.97h0Zm50.17,14.09c-1.95,.31-4.64,.22-5.62,.21-6.94-.02-14.7-1.55-19.68-6.71,7.17-.87,13.7,.98,20.23,4.06,1.58,.74,3.11,1.58,4.7,2.31,.11,.05,.24,.09,.38,.13h0ZM33.08,60.24c1.16,2.26,2.21,4.53,3.68,6.69,3.52,5.17,7.93,9.71,10.13,15.56-5.89-2.48-10.89-7.41-13.05-13.39-.83-2.29-1.32-4.77-1.04-7.21,.06-.55,.15-1.1,.28-1.64h0Zm54.15,12.54c-.11,.05-.22,.11-.34,.16-2.45,1.14-5.14,1.98-7.79,2.5-4.29,.84-9.64,.54-14.07-1.34-2.61-1.11-4.89-2.77-6.42-5.1,3.86-.65,8.01-.55,11.87,.01,2.58,.37,5.07,1.11,7.56,1.84,2.67,.79,5.34,1.53,8.11,1.88,.23,.03,.63,.04,1.08,.05h0ZM49.03,34.51c.32,.51,.65,1.01,.99,1.51,1.22,1.76,2.57,3.43,3.83,5.15,3.6,4.9,6.39,9.72,7.07,15.65-4.49-2.22-9.07-7.08-11.28-12.37-1.39-3.33-1.83-6.83-.61-9.94h0Zm30.78-17.27c.71-1.06,1.45-2.09,2.22-3.07,1.63-2.09,3.63-4.44,6.13-5.49,.17-.07,1.2-.49,1.87-.61,.22,.76,.12,1.8-.08,2.9-.4,2.19-1.27,4.59-1.65,5.85-2.7,8.94-8.28,16.3-15.2,22.41-.2,.02-.4,.04-.6,.05-.11-.07-.23-.14-.34-.21,.34-7.59,3.31-15.23,7.51-21.62,.06-.06,.1-.13,.14-.21h0Zm-9.21,20.6c-1.67-2.49-2.72-5.48-3.29-8.64-1.13-6.29-.37-13.27,1.22-18.54,.4-1.33,1.87-5.27,3.51-7.57,.32-.45,.64-.83,.96-1.11,.12-.1,.24-.19,.35-.25,.1,.13,.23,.3,.33,.46,.57,.9,1.22,2.19,1.38,2.45,2.21,3.68,3.28,7.71,3.2,12-4.12,6.29-7.07,13.75-7.66,21.21h0Zm31.04-11.09c1.69,1.39,3.43,2.65,5.44,3.56,.08,.04,.72,.27,1.23,.46-.32,.38-.7,.75-.86,.92-1.63,1.77-3.66,3.11-5.74,4.3-7.27,4.16-17.2,5.96-25.71,4.51,8.24-1.32,15.56-4.91,22.2-10.34,1.25-1.03,2.43-2.15,3.44-3.41h0Zm-34.52,7.89c-4.24-5.14-6.06-12.1-6.59-18.79-.27-3.36-.38-6.7,.63-9.96,.02-.07,.52-1.22,.94-2.04,1.77,1.67,3.3,3.23,5.53,4.44-.31,.8-.54,1.47-.67,1.89-1.65,5.48-2.44,12.75-1.26,19.31,.32,1.79,.79,3.52,1.42,5.15h0Zm21.86-14.72c.13,.04,.26,.05,.4,.02,3.62-.75,7.39-.31,10.95,.51,.26,.06,1.11,.17,1.88,.34,.23,.05,.51,.13,.71,.2-.02,.09-.04,.19-.06,.27-.18,.58-.51,1.24-.64,1.51-1.12,2.46-2.98,4.44-5.05,6.13-6.35,5.2-13.35,8.65-21.23,9.95,5.66-5.36,10.3-11.61,13.04-18.93h0Z"/></g></g></svg>