<?xml version="1.0" encoding="UTF-8"?><svg xmlns="http://www.w3.org/2000/svg" viewBox="0 0 143.92 128.45"><defs><style>.d{fill:#fff;fill-rule:evenodd;}</style></defs><g id="a"/><g id="b"><g id="c"><path class="d" d="M35.93,87.59c2.03-1.38,4.04-2.79,6.02-4.24-1.31,4.26-.81,8.18,.6,12.75,.44,1.43,.75,2.86,.93,4.35,.05,.43,.09,.85,.12,1.28,0,.05-.08,.51-.08,.68,0,.24,.06,.41,.12,.53,.12,.21,.3,.34,.5,.4,.17,.05,.42,.08,.73-.09,.14-.08,.32-.25,.45-.54,.14-.33,.25-1.02,.3-1.21,.32-1.22,.56-2.47,.85-3.7,1.29-5.55,1.37-11.57-1.34-16.72,0-.02-.02-.03-.03-.05,13.7-10.29,26.44-21.93,39.22-33.52-1.55,3.45-2.19,7.12-2.47,10.88-.1,1.3-.15,2.62-.18,3.94-.04,.05-.07,.1-.1,.15-.11,.21-.21,.41-.32,.61-.09,.01-.18,.04-.27,.08-5.19,2.63-10.52,4.46-14.21,9.27-1.33,1.74-2.45,3.65-3.17,5.73-.08,.22-.28,.55-.43,.85-.16,.31-.28,.61-.32,.82-.06,.35,.02,.62,.15,.81,.16,.24,.43,.45,.91,.42,.38-.02,.95-.29,1.54-.77,.96-.77,2.14-2.09,2.75-2.46,5.62-3.41,10.03-6.74,13.43-12.14-.03,2.77-.05,5.54-.29,8.28-.45,5.12-1.39,10.03-2.65,14.83-.03,0-.07,0-.1,0-3.73,.15-8.1,1.14-11.69,3.16-3.7,2.09-6.56,5.26-7.17,9.72-.06,.41,.11,.63,.22,.74,.19,.21,.46,.33,.82,.25,.1-.02,.27-.09,.45-.25,.16-.14,.42-.46,.57-.58,.41-.34,.83-.68,1.25-1.02,1.16-.92,2.38-1.79,3.68-2.51,3.83-2.13,7.69-3.57,11.08-6.29-1.51,5.16-3.35,10.23-5.3,15.36-.06,.01-.11,.03-.17,.05-6.29,2.77-12.15,6.46-15.69,12.61-.56,.98-1.53,2.74-2.04,4.41-.39,1.28-.48,2.53-.08,3.43,.13,.31,.34,.43,.51,.49,.2,.07,.4,.07,.62-.02,.11-.05,.27-.15,.4-.32,.07-.1,.23-.39,.25-.43,.32-.4,.65-.79,.99-1.18,.81-.92,1.72-1.78,2.73-2.47,5.97-4.08,10.08-8.38,13.66-14.77,.09-.16,.12-.34,.1-.51,.69-1.82,1.37-3.63,2.03-5.43,.88,2.02,1.97,3.93,3.29,5.71,1.2,1.62,2.5,3.14,3.93,4.56,1,.99,2.1,1.91,3.06,2.95,.34,.37,.69,.76,.96,1.19,.1,.16,.2,.56,.28,.75,.09,.2,.2,.33,.26,.39,.36,.33,.71,.28,.99,.11,.12-.07,.36-.22,.42-.65,.58-3.63-.6-7.81-2.89-11.22-2.26-3.37-5.59-5.98-9.3-6.63,2.45-7.01,4.5-14.04,5.6-21.45,3.38,4.26,7.67,6.23,12.81,8.48,.56,.25,2.18,1.42,3.37,2.04,.74,.39,1.4,.54,1.74,.47,.31-.06,.51-.22,.64-.38,.18-.24,.28-.56,.17-.96-.06-.22-.21-.5-.39-.79-.17-.27-.39-.54-.48-.75-.78-1.83-1.86-3.42-3.22-4.86-3.66-3.89-8.98-5.91-14.26-6.19,.07-.63,.13-1.26,.19-1.89,.45-5.18,.14-10.49,.52-15.62,.37-4.98,1.39-9.78,4.51-14.1,.08-.11,.13-.24,.15-.36,4.9-4.43,9.83-8.83,14.83-13.13,.06-.02,.12-.05,.18-.07,.22-.09,.38-.27,.46-.47,5.66-4.84,11.41-9.54,17.34-13.98-2.31,6.3-2.04,12.85-1.37,19.47,.12,1.17,.25,2.34,.38,3.52-1.96,2.06-4.38,3.36-6.75,4.76-2.58,1.52-5.09,3.16-7.03,5.81-.58,.8-1.39,1.92-1.94,3.06-.41,.85-.67,1.73-.66,2.5,0,.37,.18,.56,.31,.67,.18,.15,.4,.23,.68,.19,.12-.02,.3-.07,.48-.22,.13-.1,.32-.34,.44-.43,.4-.28,.81-.55,1.22-.8,1.11-.68,2.26-1.25,3.45-1.77,5.18-2.23,7.9-4.36,10.3-8.86,.39,4.41,.52,8.8-.32,13.12-.02,.09-.02,.18,0,.26-.05,.12-.07,.24-.06,.38-3.01,4.9-7.16,8.42-8.82,14.22-.27,.95-.65,2.44-.74,3.82-.07,1.04,.05,2.03,.42,2.74,.17,.34,.42,.43,.59,.47,.23,.06,.48,.02,.71-.15,.1-.07,.23-.21,.33-.43,.08-.17,.14-.53,.23-.68,.26-.46,.55-.9,.85-1.34,.82-1.19,1.78-2.29,2.77-3.35,3.84-4.14,5.84-9.78,5.32-15.46v-.03s.03-.1,.04-.15c.35-1.79,.54-3.59,.61-5.4,2.09,3.34,5.56,5.22,8.66,7.7,.52,.42,1.51,1.66,2.36,2.41,.51,.46,1.02,.74,1.39,.8,.19,.03,.82,.03,.96-.69,.06-.28,.05-1.76,.04-1.86-.13-1.76-.77-3.52-1.7-5.01-2.43-3.87-6.91-6.21-11.34-6.82-.12-.02-.24,0-.35,.03-.12-4.39-.74-8.81-1.18-13.21-.16-1.6-.3-3.19-.39-4.78,.99,1.37,2.3,2.38,3.76,3.22,2.09,1.2,4.5,2.02,6.71,3.14,1.58,.79,3.05,1.75,4.5,2.76,.4,.28,.79,.57,1.17,.87,.12,.09,.3,.34,.42,.45,.17,.15,.34,.22,.46,.24,.29,.06,.53-.02,.72-.17,.13-.11,.31-.3,.32-.68,.03-1.34-.85-2.95-1.51-4.07-1.95-3.32-4.64-4.87-7.62-5.96-2.78-1.01-5.83-1.6-8.69-2.99h-.03c-.07-.13-.16-.23-.27-.3,.05-4.3,.71-8.54,2.67-12.65,.04-.08,.06-.17,.07-.25l.1-.07c2.9-2.12,5.85-4.17,8.86-6.15,3.23-2.13,6.53-4.16,9.89-6.09,.27-.16,.55-.31,.82-.47l.24-.13c.06-.03,.12-.07,.18-.11,.09-.06,.17-.15,.23-.24,.15-.23,.17-.53,.05-.79-.03-.07-.08-.14-.13-.2-.06-.06-.12-.12-.19-.16-.09-.05-.18-.09-.28-.1-.1-.02-.21-.02-.31,0-.07,.01-.13,.04-.19,.07-.06,.03-.11,.06-.17,.09l-.59,.33c-.67,.38-1.33,.76-1.99,1.15-.93,.55-1.86,1.1-2.79,1.67-1.69,1.03-3.36,2.09-5.02,3.18-6.21,4.06-12.2,8.45-18.02,13.05-4.03,3.19-7.98,6.47-11.88,9.82l-.13,.11c-5.81,2.32-11.69,2.83-17.63,2.65,.76-5.76-.32-11.67-3.15-16.78-.58-1.05-1.43-2.47-2.44-3.61-.74-.83-1.58-1.51-2.44-1.84-.37-.14-.61-.03-.75,.05-.23,.13-.41,.35-.42,.69,0,.11,0,.28,.1,.49,.07,.15,.26,.4,.32,.54,.21,.46,.42,.93,.62,1.4,.68,1.58,1.17,3.23,1.51,4.91,.51,2.55,.7,5.27,1.28,7.84,.51,2.26,1.32,4.39,2.84,6.21-5.82-.35-11.68-1.21-17.56-1.56-.7-.04-1.41-.08-2.12-.1-.22-5.36-1.52-10.92-4.26-15.55-.9-1.52-2.31-3.89-3.88-4.8-.37-.21-.63-.13-.76-.08-.3,.11-.55,.35-.54,.8,0,.09,.02,.26,.12,.45,.08,.17,.3,.48,.37,.64,.19,.46,.37,.93,.53,1.4,.44,1.37,.67,2.81,.87,4.23,.71,5.23,1.62,9.18,5.05,12.84-8.98-.11-18.17,1.02-26.74,3.6-.16-.29-.49-.47-.84-.42-5.98,.85-12.49,2.9-17.91,5.5-.95,.46-2.54,1.26-3.74,2.25-.93,.77-1.62,1.67-1.8,2.59-.07,.38,.03,.63,.15,.8,.13,.18,.3,.31,.54,.37,.2,.05,.54,.04,.94-.11,.39-.15,.93-.46,1.26-.51,1.47-.23,2.95-.37,4.44-.48,6.61-.48,12.23-2.18,16.41-7.74,.09-.12,.15-.27,.16-.41,4.39-1.38,8.95-2.37,13.58-2.99-3.82,4.38-5.88,8.64-5.78,14.74,0,.54-.13,1.18-.2,1.8-.06,.53-.08,1.03,0,1.46,.08,.41,.3,.6,.47,.7,.22,.13,.47,.17,.76,.06,.15-.05,.35-.18,.55-.41,.31-.36,.73-1.17,1.01-1.51,.95-1.2,1.79-2.5,2.57-3.83,2.21-3.77,4.72-8.83,3.84-13.38,3.97-.39,7.95-.52,11.89-.41,.06,.01,.12,.02,.18,.02,.03,0,.06,0,.09,0,.91,.03,1.81,.07,2.71,.12,2.25,.13,4.49,.34,6.73,.56-3.69,3.8-5.7,7.19-6.02,12.64-.08,1.4-.18,2.79-.53,4.15-.12,.48-.26,.94-.42,1.41-.05,.16-.25,.46-.32,.63-.09,.22-.09,.41-.07,.52,.04,.31,.21,.51,.43,.63,.15,.08,.39,.18,.76,.05,.46-.17,.95-.58,1.4-1.13,.83-1.01,1.6-2.54,2.11-3.28,3.1-4.53,5.74-9.74,5.21-15.35,3.19,.32,6.37,.64,9.54,.78,.08,.05,.18,.08,.28,.1,.17,.03,.34,0,.49-.07,5.03,.19,10.03-.07,14.98-1.42-13.97,12.19-27.43,25.09-41.62,36.94-.16-.06-.34-.06-.52,0-5.54,1.76-10.94,1.17-16.34,.07-.61-.12-1.21-.25-1.82-.39-.05-.04-.11-.07-.18-.09-.2-.07-.4-.15-.58-.23,0-4.28-1.67-8.68-4.7-11.74-.85-.85-1.92-1.61-3.01-2.12-.07-.03-1.05-.47-1.3-.5-.44-.04-.68,.19-.79,.34-.06,.08-.3,.44-.04,.92,.1,.18,.76,1.09,.79,1.14,.4,.7,.66,1.44,.84,2.22,.86,3.76,1.66,6.71,3.86,8.89-3.23-.73-6.47-1.39-9.76-1.62-1.49-2.03-3.89-3.22-6.59-3.8-3.87-.83-8.35-.41-11.38,.34-.79,.2-2.18,.49-3.36,.92-.92,.33-1.72,.77-2.17,1.27-.25,.28-.26,.54-.23,.72,.03,.24,.14,.45,.37,.61,.1,.07,.28,.15,.52,.17,.2,.02,.58-.04,.77-.02,.54,.08,1.08,.18,1.61,.29,1.51,.3,2.96,.69,4.41,1.2,5.99,2.11,10.18,3.08,16.08,.16,.09-.05,.17-.11,.24-.18,3.72,.3,7.38,1.14,11.02,1.99-4.29,1.24-8.76,2.8-12.17,5.58-.74,.6-1.85,1.66-2.65,2.78-.6,.84-1.01,1.74-1.05,2.52-.02,.35,.13,.56,.25,.68,.16,.16,.36,.25,.62,.25,.12,0,.3-.03,.49-.15,.11-.07,.4-.3,.44-.33,.45-.23,.92-.46,1.38-.67,1.31-.6,2.7-.96,4.1-1.31,5.46-1.37,9.62-3.36,12.43-8.49,.41,.09,.82,.18,1.23,.26,4.79,.97,9.58,1.53,14.46,.57-6.2,5.09-12.56,9.96-19.17,14.47-.14-.09-.31-.14-.49-.13-6.42,.35-13.31,2.94-18.65,6.33-2.11,1.34-4.22,2.97-5.8,4.93-.11,.13-1.22,1.89-1.37,2.27-.31,.76,.35,1.11,.53,1.16,.16,.05,.42,.06,.72-.04,.43-.14,1.16-.59,1.37-.68,1.4-.56,2.83-1,4.28-1.39,3.85-1.04,7.79-1.76,11.37-3.6,3.15-1.62,5.81-4.14,8.33-6.59,.18-.17,.26-.41,.25-.64h0Z"/></g></g></svg>