<?xml version="1.0" encoding="UTF-8"?><svg xmlns="http://www.w3.org/2000/svg" viewBox="0 0 264.2 117.5"><defs><style>.d{fill:#fffdfb;}</style></defs><g id="a"/><g id="b"><g id="c"><g><path class="d" d="M80.86,64.35h-16.72v11.7c0,1.1,.05,1.8,.15,2.11s.3,.56,.58,.76c.28,.21,.78,.31,1.48,.31v.31h-7.88v-.31c1.43,.1,2.15-.6,2.15-2.09v-24.48c0-1.39-.11-2.27-.34-2.64-.23-.37-.83-.58-1.81-.62v-.31h7.88v.31c-.87,.05-1.45,.22-1.76,.5-.3,.28-.45,.84-.45,1.69v11.91h16.72v-10.89c0-1.24-.11-2.08-.32-2.53-.21-.45-.81-.67-1.79-.67v-.31h7.77v.31c-.61,0-1.07,.07-1.37,.22s-.5,.37-.61,.67c-.11,.3-.16,1.07-.16,2.31v23.36c0,1.2,.05,1.95,.16,2.24,.11,.3,.3,.54,.57,.73,.27,.19,.74,.29,1.41,.29v.31h-7.77v-.31c.84,0,1.4-.17,1.68-.52,.28-.34,.42-1.27,.42-2.79v-11.58Z"/><path class="d" d="M105.88,48.64c4.27,0,7.76,1.3,10.48,3.9,2.71,2.6,4.07,5.84,4.07,9.73,0,5-1.57,9.21-4.71,12.63s-7.31,5.13-12.5,5.13c-4.22,0-7.67-1.38-10.36-4.13s-4.03-6.06-4.03-9.92c0-2.6,.65-5.28,1.94-8.02,1.29-2.74,3.25-4.98,5.85-6.71,2.6-1.73,5.69-2.59,9.26-2.59Zm-.12,29.76c2.09,0,4.16-.56,6.2-1.68,2.04-1.12,3.64-2.67,4.82-4.64,1.17-1.97,1.76-4,1.76-6.08,0-2.95-.79-5.63-2.37-8.04-1.58-2.41-3.62-4.3-6.14-5.66-2.52-1.36-4.84-2.05-6.98-2.05-3.02,0-5.76,1.14-8.22,3.41-2.46,2.27-3.69,5.1-3.69,8.47,0,4.31,1.5,8.1,4.51,11.37,3,3.27,6.37,4.9,10.11,4.9Z"/><path class="d" d="M150.49,49.1h4.81v.31c-1.62,.08-2.44,.93-2.44,2.54,0,.34,.04,.82,.12,1.43l3.2,23.06c.19,1.15,.41,1.88,.65,2.21,.24,.32,.74,.52,1.5,.58v.31h-6.84v-.31c.91,.03,1.37-.41,1.37-1.31,0-.21-.04-.61-.12-1.21l-3.12-22.36-10.91,25.2h-.21l-10.98-25.15-3.09,22.49c-.06,.34-.08,.73-.08,1.17,0,.79,.46,1.19,1.39,1.19v.31h-4.65v-.31c.7,0,1.15-.09,1.35-.26,.2-.17,.35-.45,.46-.83,.11-.38,.19-.8,.25-1.27l3.48-24.6c-.57-1.37-1.13-2.18-1.7-2.46-.57-.28-1.11-.41-1.64-.41v-.31h5.74l10.71,24.9,10.74-24.9Z"/><path class="d" d="M160.28,49.45v-.35h19.14v4.2h-.31c-.41-1.56-.76-2.47-1.04-2.75s-.98-.41-2.08-.41h-10.05v13.66h9.32c.92,0,1.51-.09,1.76-.26,.25-.17,.38-.42,.39-.75h.31v2.87h-.31c-.07-.4-.23-.67-.49-.81-.25-.14-.73-.21-1.42-.21h-9.57v9.4c0,1.42,.13,2.44,.39,3.07s.68,1.02,1.25,1.18c.57,.16,1.43,.24,2.59,.24h5.37c1.71,0,2.8-.06,3.27-.17,.47-.12,.88-.35,1.21-.7,.33-.35,.58-1.11,.76-2.29h.31v4.17h-20.81v-.31c.7-.04,1.24-.18,1.6-.4,.37-.23,.55-.82,.55-1.77v-24.58c0-1.12-.1-1.9-.29-2.35s-.81-.68-1.86-.68Z"/><path class="d" d="M107.75,86.58v-.31h13.97c3.56,0,6.36,.28,8.42,.84,2.06,.56,3.85,1.44,5.38,2.64,1.53,1.2,2.74,2.73,3.64,4.6,.9,1.87,1.34,3.95,1.34,6.25s-.46,4.4-1.4,6.54-2.19,3.99-3.79,5.54c-1.6,1.55-3.28,2.61-5.05,3.18-1.77,.57-4.51,.86-8.22,.86h-14.3v-.31h.37c.74,0,1.23-.3,1.47-.9,.23-.6,.35-1.68,.35-3.25v-22.16c0-1.65-.14-2.65-.42-2.99-.28-.34-.87-.52-1.77-.52Zm10.38,.33h-4.67v23.63c0,1.49,.25,2.59,.75,3.32,.5,.72,1.36,1.25,2.57,1.57,1.21,.32,2.85,.49,4.9,.49,5.7,0,9.71-1.46,12.02-4.39s3.46-6.12,3.46-9.58c0-4.07-1.58-7.59-4.74-10.56s-7.93-4.46-14.29-4.46Z"/><path class="d" d="M142.66,86.62v-.35h19.14v4.2h-.31c-.41-1.56-.76-2.47-1.04-2.75s-.98-.41-2.08-.41h-10.05v13.66h9.32c.92,0,1.51-.09,1.76-.26,.25-.17,.38-.42,.39-.75h.31v2.87h-.31c-.07-.4-.23-.67-.49-.81-.25-.14-.73-.21-1.42-.21h-9.57v9.4c0,1.42,.13,2.44,.39,3.07s.68,1.02,1.25,1.18c.57,.16,1.43,.24,2.59,.24h5.37c1.71,0,2.8-.06,3.27-.17,.47-.12,.88-.35,1.21-.7,.33-.35,.58-1.11,.76-2.29h.31v4.17h-20.81v-.31c.7-.04,1.24-.18,1.6-.4,.37-.23,.55-.82,.55-1.77v-24.58c0-1.12-.1-1.9-.29-2.35s-.81-.68-1.86-.68Z"/><path class="d" d="M180.52,86.66l1.45,3.8-.25,.04s-.38-.42-1.15-1.22c-.76-.8-1.64-1.42-2.62-1.85-.99-.43-2.1-.65-3.34-.65-2.08,0-3.73,.6-4.95,1.79-1.22,1.19-1.83,2.63-1.83,4.31,0,1.12,.29,2.09,.86,2.92,.57,.83,1.77,1.61,3.58,2.33,3.13,1.05,5.26,1.85,6.42,2.38,1.15,.53,2.26,1.43,3.33,2.69s1.6,2.89,1.6,4.87c0,.83-.1,1.61-.29,2.36s-.5,1.47-.93,2.17-.94,1.33-1.54,1.9c-.6,.57-1.21,1-1.83,1.3s-1.6,.52-2.94,.67c-1.34,.15-2.22,.23-2.65,.23h-8.12v-8.85h.31c.03,2.94,.72,4.98,2.07,6.14,1.35,1.16,3.45,1.74,6.3,1.74,2.59,0,4.56-.61,5.9-1.84,1.34-1.23,2.02-2.7,2.02-4.42,0-1.05-.23-1.94-.7-2.68s-1.12-1.38-1.96-1.94c-.84-.56-2.43-1.24-4.77-2.04-2.33-.82-3.96-1.53-4.91-2.15-.95-.61-1.73-1.54-2.37-2.77-.63-1.23-.95-2.49-.95-3.77,0-2.35,.81-4.33,2.43-5.93,1.62-1.6,3.74-2.4,6.38-2.4,1.02,0,2.12,.12,3.31,.35,1.19,.23,1.85,.39,1.98,.46,.05,.03,.11,.04,.17,.04Z"/><path class="d" d="M193.29,86.27v.31c-.4-.04-.84,.02-1.33,.19-.49,.17-.78,.41-.87,.72-.09,.32-.13,1.07-.13,2.25v23.36c0,1.27,.05,2.04,.15,2.32,.1,.28,.3,.52,.6,.7,.3,.19,.82,.28,1.58,.28v.31h-8.12v-.31c1.02,0,1.65-.2,1.9-.59s.37-1.28,.37-2.67v-23.13c0-1.45-.14-2.39-.41-2.84-.28-.45-.9-.64-1.86-.59v-.31h8.12Z"/><path class="d" d="M225.11,116.41v.31h-12.28c-2.36,0-4.42-.25-6.19-.76-1.77-.51-3.58-1.48-5.42-2.9-1.84-1.43-3.33-3.2-4.46-5.32s-1.71-4.29-1.71-6.51c0-2.42,.71-4.84,2.14-7.25s3.46-4.37,6.09-5.88,5.62-2.26,8.95-2.26c2.99,0,6.15,.66,9.49,1.98l1.26,3.51h-.3c-1.06-1.35-2.51-2.47-4.35-3.36-1.84-.89-3.89-1.33-6.15-1.33-3.92,0-7.14,1.48-9.65,4.43-2.51,2.96-3.76,6.62-3.76,11.01,0,1.82,.21,3.44,.62,4.87,.41,1.43,1.19,2.83,2.33,4.22s2.36,2.4,3.66,3.06c1.3,.66,2.76,1.11,4.37,1.36,1.61,.26,2.89,.37,3.84,.34l1.63-.04c1.85-.07,3-.24,3.46-.52,.46-.28,.69-.98,.69-2.11v-4.61c0-.9-.19-1.5-.56-1.81-.37-.31-.9-.44-1.59-.4v-.31h7.88v.31c-.88,0-1.47,.17-1.77,.52s-.44,1-.44,1.98v4.79c0,.96,.13,1.65,.38,2.07,.25,.42,.72,.63,1.4,.63h.43Z"/><path class="d" d="M252.05,86.27h5.89v.31c-.9,.03-1.52,.22-1.86,.57-.34,.35-.52,1.09-.52,2.22v27.72l-24.29-25.86v22.51c0,.72,.05,1.25,.17,1.59,.11,.34,.27,.58,.48,.7s.72,.25,1.55,.37v.31h-5.85v-.31c1.05,0,1.7-.19,1.95-.56,.25-.37,.38-1.26,.38-2.66v-20.59c0-1.8-.25-3.28-.75-4.42-.5-1.14-1.66-1.67-3.48-1.59v-.31h5.73l22.82,24.3v-21.49c0-1.16-.21-1.86-.62-2.12-.41-.25-.94-.38-1.59-.38v-.31Z"/></g><g><path class="d" d="M188.45,65.87h.96v5.17h-.96v-5.17Z"/><path class="d" d="M196.15,65.87v5.17h-.79l-2.85-3.5v3.5h-.95v-5.17h.79l2.85,3.5v-3.5h.95Z"/><path class="d" d="M199.32,66.68h-1.71v-.81h4.39v.81h-1.71v4.36h-.96v-4.36Z"/><path class="d" d="M207.34,70.23v.81h-3.88v-5.17h3.78v.81h-2.82v1.34h2.5v.79h-2.5v1.43h2.92Z"/><path class="d" d="M212.54,71.04l-1.06-1.51s-.11,0-.2,0h-1.17v1.51h-.96v-5.17h2.13c.45,0,.84,.07,1.17,.22s.59,.36,.77,.64c.18,.28,.27,.6,.27,.98s-.1,.72-.28,1c-.19,.28-.46,.49-.82,.63l1.19,1.7h-1.03Zm-.35-4.09c-.22-.18-.53-.27-.95-.27h-1.12v2.06h1.12c.42,0,.74-.09,.95-.27,.22-.18,.33-.43,.33-.76s-.11-.58-.33-.76Z"/><path class="d" d="M215.29,65.87h.96v5.17h-.96v-5.17Z"/><path class="d" d="M219.38,70.77c-.42-.23-.76-.55-1-.95-.24-.41-.36-.86-.36-1.36s.12-.96,.36-1.36c.24-.41,.57-.72,1-.95,.42-.23,.9-.34,1.43-.34s1,.11,1.43,.34c.42,.23,.76,.55,1,.95,.24,.4,.36,.86,.36,1.37s-.12,.96-.36,1.37c-.24,.4-.57,.72-1,.95-.42,.23-.9,.34-1.43,.34s-1-.12-1.43-.34Zm2.36-.73c.28-.16,.49-.37,.65-.65,.16-.28,.24-.59,.24-.94s-.08-.66-.24-.93c-.16-.28-.37-.5-.65-.65-.28-.16-.59-.23-.93-.23s-.66,.08-.93,.23-.49,.37-.65,.65-.24,.59-.24,.93,.08,.66,.24,.94,.37,.5,.65,.65,.59,.23,.93,.23,.65-.08,.93-.23Z"/><path class="d" d="M228.74,71.04l-1.06-1.51s-.11,0-.2,0h-1.17v1.51h-.96v-5.17h2.13c.45,0,.84,.07,1.17,.22s.59,.36,.77,.64c.18,.28,.27,.6,.27,.98s-.1,.72-.28,1c-.19,.28-.46,.49-.82,.63l1.19,1.7h-1.03Zm-.35-4.09c-.22-.18-.53-.27-.95-.27h-1.12v2.06h1.12c.42,0,.74-.09,.95-.27,.22-.18,.33-.43,.33-.76s-.11-.58-.33-.76Z"/><path class="d" d="M231.49,65.87h.96v5.17h-.96v-5.17Z"/><path class="d" d="M235.04,70.94c-.37-.11-.67-.26-.88-.45l.33-.75c.21,.17,.47,.3,.78,.41,.31,.11,.62,.16,.93,.16,.38,0,.67-.06,.86-.18s.28-.29,.28-.49c0-.15-.05-.27-.16-.37-.11-.1-.24-.17-.4-.23-.16-.05-.38-.12-.67-.18-.39-.09-.71-.19-.96-.28-.24-.09-.45-.24-.63-.44-.17-.2-.26-.47-.26-.81,0-.29,.08-.55,.23-.78,.16-.23,.39-.42,.7-.56s.7-.21,1.15-.21c.31,0,.63,.04,.93,.12,.31,.08,.57,.19,.79,.34l-.3,.75c-.23-.13-.46-.23-.71-.3-.25-.07-.49-.1-.72-.1-.38,0-.66,.06-.85,.19-.19,.13-.28,.3-.28,.51,0,.15,.05,.27,.16,.36,.11,.09,.24,.17,.4,.22,.16,.05,.38,.12,.67,.18,.38,.09,.7,.18,.95,.28,.25,.1,.46,.24,.63,.44,.17,.2,.26,.46,.26,.8,0,.29-.08,.54-.23,.78s-.39,.42-.71,.55c-.32,.14-.7,.21-1.15,.21-.4,0-.78-.06-1.16-.17Z"/><path class="d" d="M244.73,71.04v-3.43l-1.71,2.84h-.43l-1.7-2.79v3.38h-.92v-5.17h.79l2.05,3.43,2.02-3.43h.79v5.17h-.9Z"/><path class="d" d="M248.76,70.77c-.42-.23-.76-.55-1-.95-.24-.41-.36-.86-.36-1.36s.12-.96,.36-1.36c.24-.41,.57-.72,1-.95,.42-.23,.9-.34,1.43-.34s1,.11,1.43,.34c.42,.23,.76,.55,1,.95,.24,.4,.36,.86,.36,1.37s-.12,.96-.36,1.37c-.24,.4-.57,.72-1,.95-.42,.23-.9,.34-1.43,.34s-1-.12-1.43-.34Zm2.36-.73c.28-.16,.49-.37,.65-.65,.16-.28,.24-.59,.24-.94s-.08-.66-.24-.93c-.16-.28-.37-.5-.65-.65-.28-.16-.59-.23-.93-.23s-.66,.08-.93,.23-.49,.37-.65,.65-.24,.59-.24,.93,.08,.66,.24,.94,.37,.5,.65,.65,.59,.23,.93,.23,.65-.08,.93-.23Z"/><path class="d" d="M190.69,77.59v1.83h-.96v-1.81l-2.03-3.36h1.03l1.51,2.52,1.53-2.52h.95l-2.02,3.35Z"/><path class="d" d="M196.86,74.24h2.26c.55,0,1.04,.11,1.47,.32,.43,.21,.76,.52,1,.91s.35,.84,.35,1.36-.12,.96-.35,1.36-.57,.69-1,.91c-.43,.21-.92,.32-1.47,.32h-2.26v-5.17Zm2.22,4.36c.38,0,.71-.07,1-.22,.29-.14,.51-.35,.67-.62s.23-.58,.23-.94-.08-.67-.23-.93-.38-.48-.67-.62c-.29-.15-.62-.22-1-.22h-1.26v3.55h1.26Z"/><path class="d" d="M207.58,78.61v.81h-3.88v-5.17h3.78v.81h-2.82v1.34h2.5v.79h-2.5v1.43h2.92Z"/><path class="d" d="M210.35,79.15c-.42-.23-.75-.55-.99-.95-.24-.4-.36-.86-.36-1.37s.12-.96,.36-1.37c.24-.4,.57-.72,.99-.95s.89-.34,1.42-.34c.42,0,.81,.07,1.16,.22,.35,.15,.65,.36,.89,.64l-.62,.58c-.37-.4-.83-.61-1.38-.61-.35,0-.67,.08-.95,.23s-.5,.37-.66,.65c-.16,.28-.24,.59-.24,.94s.08,.66,.24,.94c.16,.28,.38,.49,.66,.65s.6,.23,.95,.23c.55,0,1.01-.2,1.38-.61l.62,.59c-.24,.28-.54,.5-.89,.64-.35,.15-.74,.22-1.16,.22-.52,0-.99-.12-1.42-.34Z"/><path class="d" d="M216.36,79.15c-.42-.23-.76-.55-1-.95-.24-.41-.36-.86-.36-1.36s.12-.96,.36-1.36c.24-.41,.57-.72,1-.95,.42-.23,.9-.34,1.43-.34s1,.11,1.43,.34c.42,.23,.76,.55,1,.95,.24,.4,.36,.86,.36,1.37s-.12,.96-.36,1.37c-.24,.4-.57,.72-1,.95-.42,.23-.9,.34-1.43,.34s-1-.12-1.43-.34Zm2.36-.73c.28-.16,.49-.37,.65-.65,.16-.28,.24-.59,.24-.94s-.08-.66-.24-.93c-.16-.28-.37-.5-.65-.65-.28-.16-.59-.23-.93-.23s-.66,.08-.93,.23-.49,.37-.65,.65-.24,.59-.24,.93,.08,.66,.24,.94,.37,.5,.65,.65,.59,.23,.93,.23,.65-.08,.93-.23Z"/><path class="d" d="M225.71,79.42l-1.06-1.51s-.11,0-.2,0h-1.17v1.51h-.96v-5.17h2.13c.45,0,.84,.07,1.17,.22s.59,.36,.77,.64c.18,.28,.27,.6,.27,.98s-.1,.72-.28,1c-.19,.28-.46,.49-.82,.63l1.19,1.7h-1.03Zm-.35-4.09c-.22-.18-.53-.27-.95-.27h-1.12v2.06h1.12c.42,0,.74-.09,.95-.27,.22-.18,.33-.43,.33-.76s-.11-.58-.33-.76Z"/><path class="d" d="M231.83,78.22h-2.59l-.51,1.2h-.99l2.33-5.17h.95l2.34,5.17h-1.01l-.52-1.2Zm-.32-.75l-.98-2.26-.97,2.26h1.94Z"/><path class="d" d="M235.65,79.15c-.42-.23-.75-.55-.99-.95-.24-.4-.36-.86-.36-1.37s.12-.96,.36-1.37c.24-.4,.57-.72,.99-.95s.89-.34,1.42-.34c.42,0,.81,.07,1.16,.22,.35,.15,.65,.36,.89,.64l-.62,.58c-.37-.4-.83-.61-1.38-.61-.35,0-.67,.08-.95,.23s-.5,.37-.66,.65c-.16,.28-.24,.59-.24,.94s.08,.66,.24,.94c.16,.28,.38,.49,.66,.65s.6,.23,.95,.23c.55,0,1.01-.2,1.38-.61l.62,.59c-.24,.28-.54,.5-.89,.64-.35,.15-.74,.22-1.16,.22-.52,0-.99-.12-1.42-.34Z"/><path class="d" d="M240.78,74.24h.96v5.17h-.96v-5.17Z"/><path class="d" d="M244.87,79.15c-.42-.23-.76-.55-1-.95-.24-.41-.36-.86-.36-1.36s.12-.96,.36-1.36c.24-.41,.57-.72,1-.95,.42-.23,.9-.34,1.43-.34s1,.11,1.43,.34c.42,.23,.76,.55,1,.95,.24,.4,.36,.86,.36,1.37s-.12,.96-.36,1.37c-.24,.4-.57,.72-1,.95-.42,.23-.9,.34-1.43,.34s-1-.12-1.43-.34Zm2.36-.73c.28-.16,.49-.37,.65-.65,.16-.28,.24-.59,.24-.94s-.08-.66-.24-.93c-.16-.28-.37-.5-.65-.65-.28-.16-.59-.23-.93-.23s-.66,.08-.93,.23-.49,.37-.65,.65-.24,.59-.24,.93,.08,.66,.24,.94,.37,.5,.65,.65,.59,.23,.93,.23,.65-.08,.93-.23Zm-.55-5.61h1.09l-1.29,1.01h-.8l1-1.01Z"/><path class="d" d="M255.44,74.24v5.17h-.79l-2.85-3.5v3.5h-.95v-5.17h.79l2.85,3.5v-3.5h.95Z"/></g><path class="d" d="M263.43,80.9c.24,.14,.43,.33,.57,.58,.14,.25,.21,.52,.21,.83s-.07,.58-.21,.83-.33,.44-.57,.58-.52,.21-.82,.21-.59-.07-.83-.21-.43-.33-.57-.58-.21-.52-.21-.83,.07-.58,.21-.83c.14-.25,.33-.44,.57-.58s.52-.21,.83-.21,.58,.07,.82,.21Zm.1,2.35c.23-.24,.35-.56,.35-.94s-.12-.7-.35-.94c-.23-.24-.54-.36-.92-.36s-.69,.12-.92,.36c-.23,.24-.34,.56-.34,.94s.11,.7,.34,.94c.23,.24,.54,.36,.92,.36s.69-.12,.92-.36Zm-.31-.95c-.07,.09-.16,.15-.27,.19l.44,.66h-.5l-.38-.62h-.13v.63h-.41v-1.7h.76c.18,0,.32,.05,.43,.14,.11,.09,.16,.22,.16,.39,0,.13-.03,.23-.1,.32Zm-.84-.12h.32c.06,0,.11-.02,.15-.05s.06-.08,.06-.13-.02-.1-.06-.13c-.04-.03-.09-.04-.15-.04h-.32v.36Z"/><path class="d" d="M2.38,69.71v2.25c-.72,.26-1.43,.54-2.12,.84v-2.3c.68-.28,1.39-.55,2.12-.8Z"/><path class="d" d="M.26,70.51v2.3c.69-.3,1.4-.58,2.12-.84v-2.25c-.73,.25-1.44,.52-2.12,.8Z"/><path class="d" d="M14.06,67.44c-3.85,.21-7.65,.92-11.28,2.13l-.4,.14v2.25c.07-.02,.14-.04,.2-.07,3.89-1.86,3.02-2.18,11.49-4.42v-.03Z"/><g><path class="d" d="M94.05,114.85H59.15s0-.05,0-.07c.15-1.44,.22-2.91,.22-4.38,0-9.72-3.32-19.18-9.37-26.76,0,0,0,.01-.01,.02,4.78,6.95,7.26,18.35,7.26,26.74,0,1.48-.08,2.97-.24,4.44H2.65V35.04L48.5,3.23l43.08,29.89-14.84,2.02,.03,.53h23.14L48.5,0,0,33.65V117.5H97.31v-18.05h-3.24l-.02,15.4ZM.26,70.51c.68-.28,1.39-.55,2.12-.8v2.25c-.72,.26-1.43,.54-2.12,.84v-2.3Z"/><path class="d" d="M30.94,70.61c0,.08-.02,.62-.11,1.53h0c-.15,1.7-.53,4.71-1.42,8.45-.24,1.01-.51,2.06-.83,3.16-.36,1.23-.77,2.51-1.24,3.84-.13,.38-.28,.76-.42,1.14-.05,.13-.1,.27-.15,.4-.75,1.93-1.66,4-2.77,6.13-.16,.32-.34,.64-.51,.96-.1,.19-.21,.38-.32,.57-.49,.87-1.02,1.75-1.58,2.63-.8,1.26-1.68,2.51-2.64,3.75-.33,.43-.67,.86-1.02,1.28-3.12,3.79-7.04,7.41-11.94,10.4H2.67c5.92-3.12,10.5-7.18,14.03-11.48,.23-.29,.46-.57,.69-.86,.69-.88,1.34-1.77,1.94-2.66,.35-.51,.69-1.03,1.01-1.54,.59-.94,1.14-1.87,1.65-2.8,.28-.51,.55-1.02,.81-1.51,1.02-1.98,1.85-3.91,2.53-5.7,.01-.03,.03-.07,.04-.1,.14-.37,.27-.73,.4-1.09,.45-1.26,.84-2.49,1.19-3.66,.05-.16,.09-.31,.14-.47,1.38-4.88,1.91-8.92,2.1-10.97h0c.09-.92,.11-1.43,.11-1.46l.86,.03h.1l.67,.03Z"/><path class="d" d="M29.77,72.67l.56-.27c3.37-1.65,5.47-3.99,6.26-6.94,1.48-5.58-2.31-11.28-2.48-11.52l-.46-.69-.68,.48c-3.89,2.72-6.08,5.88-6.5,9.38-.6,5.07,2.75,8.93,2.89,9.1l.41,.47Zm3.42-17.09c.91,1.62,2.82,5.67,1.81,9.46-.61,2.3-2.23,4.18-4.81,5.58-.8-1.11-2.52-3.96-2.11-7.34,.34-2.8,2.05-5.39,5.1-7.7Z"/><path class="d" d="M25.58,87.12c.34-.02,.55-.05,.59-.06l.62-.09,.08-.62c.46-3.72-.35-6.76-2.39-9.03-3.86-4.29-10.71-4.23-11-4.22h-.83l.03,.84c.15,4.75,1.6,8.31,4.3,10.57,3.18,2.66,7.12,2.71,8.6,2.61Zm-11.22-12.36c1.85,.13,6.29,.74,8.91,3.66,1.59,1.77,2.28,4.15,2.04,7.07-1.36,.06-4.69-.06-7.3-2.25-2.16-1.82-3.39-4.67-3.66-8.48Z"/><path class="d" d="M26.76,86.28c.58-.93,1.18-1.78,1.82-2.53,2.11-2.51,4.52-4.01,7.19-4.48,1.01-.18,1.98-.19,2.88-.1,.58,.06,1.13,.16,1.65,.28,2.73,.67,4.59,2.11,4.7,2.2l.49,.39-.24,.57c-1.07,2.52-2.54,4.39-4.39,5.59-.5,.32-1.03,.6-1.58,.82-.2,.08-.4,.15-.61,.22-.86,.28-1.73,.43-2.59,.49-3.98,.25-7.67-1.56-8.74-2.15-.17-.1-.28-.16-.31-.17l-.71-.43,.44-.7Zm11.41,1.41c.34-.11,.68-.25,1-.4,.56-.27,1.08-.61,1.57-1.02,1.09-.9,2-2.14,2.74-3.69-.6-.38-1.69-.99-3.06-1.4-.51-.15-1.07-.28-1.66-.35-.86-.11-1.77-.12-2.72,.05-2.78,.49-5.27,2.35-7.41,5.52,1.67,.82,5.82,2.51,9.55,1.29Z"/><path class="d" d="M5.8,86.15c.03-.26,.07-.52,.11-.79l.13-.82,.23,.04,.59,.1c.21,.04,3.48,.62,6.65,2.56,1.7,1.03,3.37,2.44,4.53,4.36,.13,.21,.25,.43,.36,.65,.67,1.3,1.05,2.71,1.15,4.22,.05,.84,.02,1.71-.1,2.6-.04,.26-.08,.52-.12,.78-.13,.7-.32,1.41-.55,2.14l-.03,.09-.16,.51h-.29l-.33-.03s-.25-.01-.59-.05c-.28-.03-.65-.08-1.08-.17-.23-.05-.48-.1-.74-.17-2.04-.51-4.97-1.67-7.14-4.32-2.36-2.89-3.25-6.82-2.62-11.7Zm3.88,10.65c2.14,2.63,5.24,3.59,7,3.93,.28,.06,.53,.1,.74,.12,.16-.56,.28-1.11,.36-1.65,.41-2.56,.04-4.83-1.13-6.76-1.01-1.67-2.51-2.92-4.04-3.84-2.02-1.21-4.1-1.85-5.21-2.14v.1c-.52,4.31,.25,7.74,2.27,10.23Z"/><path class="d" d="M18.31,102.57l.45-.49h0l.09-.11c.9-.98,1.8-1.83,2.73-2.56,.8-.63,1.6-1.17,2.42-1.62,.22-.12,.45-.24,.67-.35h0c.28-.14,.56-.26,.84-.38,1.54-.63,3.1-.93,4.68-.91,5.69,.07,9.48,4.35,9.63,4.53l.22,.26,.19,.21-.16,.23-.19,.28c-2.32,3.48-5.21,5.47-8.58,5.9-.07,0-.14,.02-.21,.02-.17,.02-.33,.03-.49,.04-.41,.03-.81,.03-1.22,.01-3.89-.16-7.34-2.2-9.14-3.49-.71-.5-1.16-.89-1.29-1-.01-.01-.02-.02-.03-.03l-.62-.55,.02-.02Zm10.45,3.4c.58,.07,1.17,.08,1.77,.04,.19-.01,.38-.03,.57-.06,2.71-.35,5.08-1.91,7.05-4.64-1.08-1.03-4.06-3.48-8-3.52-1.22-.01-2.43,.2-3.64,.64-.51,.19-1.02,.41-1.52,.68-.73,.39-1.46,.86-2.18,1.42-.72,.56-1.44,1.2-2.15,1.92,.16,.12,.35,.26,.56,.41,1.54,1.09,4.38,2.77,7.54,3.11Z"/></g></g></g></svg>