<?xml version="1.0" encoding="UTF-8"?><svg xmlns="http://www.w3.org/2000/svg" viewBox="0 0 278.9 124.03"><defs><style>.d{fill:#616160;}.e{fill:#d3c1af;}</style></defs><g id="a"/><g id="b"><g id="c"><g><path class="d" d="M85.36,67.93h-17.65v12.35c0,1.16,.05,1.9,.16,2.22,.11,.32,.31,.59,.61,.81,.3,.22,.82,.33,1.56,.33v.33h-8.31v-.33c1.51,.1,2.27-.63,2.27-2.2v-25.84c0-1.47-.12-2.4-.36-2.79-.24-.39-.88-.61-1.91-.65v-.33h8.31v.33c-.92,.06-1.54,.23-1.85,.52-.32,.29-.48,.89-.48,1.79v12.57h17.65v-11.5c0-1.31-.11-2.2-.34-2.67-.23-.47-.85-.71-1.89-.71v-.33h8.2v.33c-.65,0-1.13,.08-1.45,.23-.32,.15-.53,.39-.65,.71-.12,.32-.17,1.13-.17,2.44v24.66c0,1.26,.06,2.05,.17,2.37s.32,.57,.6,.77c.29,.2,.79,.31,1.49,.31v.33h-8.2v-.33c.89,0,1.48-.18,1.78-.54s.45-1.34,.45-2.94v-12.22Z"/><path class="d" d="M111.74,51.35c4.51,0,8.2,1.37,11.06,4.11s4.3,6.16,4.3,10.27c0,5.28-1.66,9.72-4.98,13.33s-7.72,5.41-13.2,5.41c-4.45,0-8.09-1.45-10.93-4.36-2.84-2.91-4.25-6.4-4.25-10.47,0-2.75,.68-5.57,2.05-8.47s3.43-5.25,6.17-7.08c2.75-1.83,6.01-2.74,9.78-2.74Zm-.13,31.42c2.21,0,4.39-.59,6.55-1.78s3.85-2.82,5.08-4.9,1.85-4.22,1.85-6.42c0-3.11-.83-5.94-2.5-8.49-1.67-2.55-3.83-4.54-6.48-5.98-2.65-1.44-5.11-2.16-7.36-2.16-3.19,0-6.08,1.2-8.67,3.6-2.6,2.4-3.9,5.38-3.9,8.95,0,4.55,1.59,8.55,4.76,12,3.17,3.45,6.73,5.17,10.67,5.17Z"/><path class="d" d="M158.79,51.83h5.07v.33c-1.71,.09-2.57,.98-2.57,2.69,0,.36,.04,.87,.13,1.51l3.38,24.35c.2,1.21,.43,1.99,.69,2.33,.25,.34,.78,.54,1.58,.62v.33h-7.22v-.33c.96,.03,1.44-.43,1.44-1.39,0-.22-.04-.64-.13-1.28l-3.3-23.6-11.52,26.6h-.22l-11.59-26.55-3.26,23.74c-.06,.36-.09,.77-.09,1.23,0,.84,.49,1.25,1.47,1.25v.33h-4.91v-.33c.74,0,1.22-.09,1.43-.27,.21-.18,.37-.47,.49-.87,.12-.4,.2-.85,.26-1.34l3.68-25.96c-.6-1.44-1.2-2.31-1.79-2.6s-1.17-.44-1.73-.44v-.33h6.06l11.3,26.29,11.34-26.29Z"/><path class="d" d="M169.1,52.2v-.37h20.2v4.43h-.33c-.44-1.64-.8-2.61-1.1-2.9-.3-.29-1.03-.44-2.19-.44h-10.6v14.42h9.84c.97,0,1.59-.09,1.85-.27,.26-.18,.4-.45,.41-.8h.33v3.03h-.33c-.07-.42-.24-.71-.51-.85s-.77-.22-1.49-.22h-10.1v9.93c0,1.5,.14,2.58,.41,3.24,.28,.66,.72,1.08,1.32,1.24,.6,.17,1.51,.25,2.73,.25h5.67c1.8,0,2.95-.06,3.45-.18,.5-.12,.93-.37,1.27-.74s.62-1.17,.81-2.42h.33v4.41h-21.97v-.33c.74-.04,1.31-.19,1.69-.42,.39-.24,.58-.86,.58-1.86v-25.95c0-1.18-.1-2.01-.31-2.49-.2-.48-.86-.72-1.96-.72Z"/><path class="e" d="M113.75,91.4v-.33h14.75c3.75,0,6.72,.29,8.89,.88,2.17,.59,4.07,1.52,5.68,2.78,1.61,1.27,2.89,2.88,3.84,4.86,.95,1.97,1.42,4.17,1.42,6.6s-.49,4.64-1.47,6.91c-.98,2.26-2.32,4.21-4,5.85-1.69,1.64-3.47,2.76-5.33,3.36s-4.76,.91-8.67,.91h-15.1v-.33h.39c.79,0,1.3-.32,1.55-.95,.25-.63,.37-1.78,.37-3.43v-23.4c0-1.74-.15-2.8-.45-3.16-.3-.36-.92-.54-1.87-.54Zm10.95,.35h-4.93v24.94c0,1.57,.27,2.74,.8,3.5,.53,.76,1.44,1.32,2.72,1.66,1.28,.34,3,.51,5.17,.51,6.02,0,10.25-1.55,12.69-4.64,2.44-3.09,3.65-6.46,3.65-10.11,0-4.29-1.67-8.01-5.01-11.15-3.34-3.14-8.37-4.71-15.09-4.71Z"/><path class="e" d="M150.56,91.44v-.37h20.2v4.43h-.33c-.44-1.64-.8-2.61-1.1-2.9-.3-.29-1.03-.44-2.19-.44h-10.6v14.42h9.84c.97,0,1.59-.09,1.85-.27,.26-.18,.4-.45,.41-.8h.33v3.03h-.33c-.07-.42-.24-.71-.51-.85s-.77-.22-1.49-.22h-10.1v9.93c0,1.5,.14,2.58,.41,3.24,.28,.66,.72,1.08,1.32,1.24,.6,.17,1.51,.25,2.73,.25h5.67c1.8,0,2.95-.06,3.45-.18,.5-.12,.93-.37,1.27-.74s.62-1.17,.81-2.42h.33v4.41h-21.97v-.33c.74-.04,1.31-.19,1.69-.42,.39-.24,.58-.86,.58-1.86v-25.95c0-1.18-.1-2.01-.31-2.49-.2-.48-.86-.72-1.96-.72Z"/><path class="e" d="M190.49,91.49l1.53,4.01-.26,.04s-.4-.44-1.21-1.29-1.73-1.5-2.77-1.95c-1.04-.46-2.21-.69-3.52-.69-2.2,0-3.94,.63-5.23,1.89-1.29,1.26-1.93,2.77-1.93,4.55,0,1.18,.3,2.21,.91,3.09s1.86,1.7,3.78,2.46c3.3,1.11,5.56,1.95,6.77,2.51s2.39,1.51,3.52,2.84c1.13,1.34,1.69,3.05,1.69,5.14,0,.87-.1,1.7-.31,2.5s-.53,1.55-.98,2.29c-.45,.73-.99,1.4-1.63,2.01-.63,.6-1.28,1.06-1.93,1.37-.65,.31-1.69,.55-3.1,.71-1.41,.16-2.34,.24-2.79,.24h-8.58v-9.34h.33c.03,3.1,.76,5.26,2.18,6.48,1.43,1.22,3.64,1.83,6.65,1.83,2.73,0,4.81-.65,6.23-1.94,1.42-1.29,2.13-2.85,2.13-4.67,0-1.11-.25-2.05-.74-2.83-.5-.78-1.19-1.46-2.07-2.05-.89-.59-2.57-1.31-5.04-2.16-2.46-.86-4.18-1.62-5.18-2.26s-1.83-1.62-2.5-2.92c-.67-1.3-1-2.63-1-3.98,0-2.48,.85-4.57,2.56-6.26,1.71-1.69,3.95-2.53,6.73-2.53,1.08,0,2.24,.12,3.49,.37,1.25,.25,1.95,.41,2.09,.48,.06,.03,.12,.04,.17,.04Z"/><path class="e" d="M203.94,91.07v.33c-.42-.04-.89,.02-1.41,.2s-.82,.43-.92,.76c-.1,.33-.14,1.13-.14,2.38v24.66c0,1.34,.05,2.16,.16,2.45,.11,.3,.32,.54,.63,.74,.31,.2,.87,.29,1.67,.29v.33h-8.58v-.33c1.08,0,1.75-.21,2.01-.62s.39-1.36,.39-2.82v-24.42c0-1.53-.15-2.53-.44-3-.29-.47-.95-.68-1.96-.62v-.33h8.58Z"/><path class="e" d="M237.49,122.88v.33h-12.96c-2.49,0-4.67-.27-6.54-.81-1.87-.54-3.77-1.56-5.72-3.07s-3.51-3.38-4.71-5.62c-1.2-2.24-1.8-4.53-1.8-6.87,0-2.56,.75-5.11,2.26-7.66,1.51-2.54,3.65-4.61,6.43-6.21,2.78-1.59,5.93-2.39,9.45-2.39,3.16,0,6.49,.7,10.02,2.09l1.33,3.71h-.32c-1.12-1.42-2.65-2.61-4.59-3.54-1.94-.94-4.1-1.41-6.49-1.41-4.14,0-7.54,1.56-10.18,4.68-2.65,3.12-3.97,6.99-3.97,11.62,0,1.92,.22,3.63,.65,5.14,.44,1.5,1.25,2.99,2.45,4.45s2.49,2.54,3.86,3.23c1.38,.69,2.91,1.17,4.61,1.44,1.7,.27,3.05,.39,4.06,.36l1.72-.04c1.95-.07,3.17-.25,3.65-.55,.49-.29,.73-1.03,.73-2.23v-4.87c0-.95-.2-1.58-.59-1.91-.39-.33-.95-.47-1.68-.43v-.33h8.31v.33c-.93,0-1.55,.18-1.87,.54-.31,.36-.47,1.06-.47,2.09v5.05c0,1.02,.13,1.75,.4,2.19s.76,.66,1.47,.66h.46Z"/><path class="e" d="M265.9,91.07h6.22v.33c-.95,.03-1.6,.23-1.96,.6-.36,.37-.55,1.15-.55,2.35v29.26l-25.64-27.3v23.77c0,.76,.06,1.32,.17,1.68,.12,.36,.28,.61,.5,.74,.22,.13,.76,.26,1.64,.39v.33h-6.17v-.33c1.1,0,1.79-.2,2.06-.59,.27-.39,.4-1.33,.4-2.81v-21.74c0-1.9-.27-3.46-.8-4.67-.53-1.21-1.76-1.77-3.68-1.68v-.33h6.04l24.09,25.65v-22.68c0-1.22-.22-1.97-.65-2.24-.44-.27-1-.4-1.68-.4v-.33Z"/></g><g><path class="d" d="M198.94,69.53h1.01v5.46h-1.01v-5.46Z"/><path class="d" d="M207.06,69.53v5.46h-.83l-3.01-3.7v3.7h-1.01v-5.46h.83l3.01,3.7v-3.7h1.01Z"/><path class="d" d="M210.41,70.39h-1.81v-.86h4.63v.86h-1.81v4.6h-1.01v-4.6Z"/><path class="d" d="M218.88,74.14v.85h-4.1v-5.46h3.99v.85h-2.97v1.42h2.64v.83h-2.64v1.5h3.08Z"/><path class="d" d="M224.36,74.99l-1.12-1.6s-.12,0-.21,0h-1.23v1.59h-1.01v-5.46h2.25c.47,0,.89,.08,1.24,.23s.62,.38,.81,.67,.28,.64,.28,1.04-.1,.76-.3,1.06c-.2,.3-.49,.52-.86,.66l1.26,1.79h-1.09Zm-.37-4.32c-.23-.19-.56-.28-1.01-.28h-1.19v2.18h1.19c.44,0,.78-.09,1.01-.29,.23-.19,.34-.46,.34-.81s-.11-.62-.34-.8Z"/><path class="d" d="M227.27,69.53h1.01v5.46h-1.01v-5.46Z"/><path class="d" d="M231.59,74.71c-.45-.24-.8-.58-1.05-1.01s-.38-.91-.38-1.44,.13-1.01,.38-1.44c.25-.43,.61-.76,1.05-1.01,.45-.24,.95-.36,1.51-.36s1.06,.12,1.51,.36c.45,.24,.8,.58,1.05,1,.25,.43,.38,.91,.38,1.44s-.13,1.02-.38,1.44c-.25,.43-.61,.76-1.05,1-.45,.24-.95,.36-1.51,.36s-1.06-.12-1.51-.36Zm2.49-.77c.29-.16,.52-.39,.69-.69s.25-.62,.25-.99-.08-.69-.25-.99c-.17-.29-.4-.52-.69-.69-.29-.16-.62-.25-.98-.25s-.69,.08-.98,.25c-.29,.16-.52,.39-.69,.69-.17,.29-.25,.62-.25,.99s.08,.69,.25,.99,.4,.52,.69,.69c.29,.16,.62,.25,.98,.25s.69-.08,.98-.25Z"/><path class="d" d="M241.46,74.99l-1.12-1.6s-.12,0-.21,0h-1.23v1.59h-1.01v-5.46h2.25c.47,0,.89,.08,1.24,.23s.62,.38,.81,.67,.28,.64,.28,1.04-.1,.76-.3,1.06c-.2,.3-.49,.52-.86,.66l1.26,1.79h-1.09Zm-.37-4.32c-.23-.19-.56-.28-1.01-.28h-1.19v2.18h1.19c.44,0,.78-.09,1.01-.29,.23-.19,.34-.46,.34-.81s-.11-.62-.34-.8Z"/><path class="d" d="M244.37,69.53h1.01v5.46h-1.01v-5.46Z"/><path class="d" d="M248.11,74.89c-.39-.12-.7-.28-.93-.48l.35-.79c.22,.18,.5,.32,.82,.43,.32,.11,.65,.17,.98,.17,.41,0,.71-.06,.91-.2,.2-.13,.3-.3,.3-.51,0-.16-.06-.28-.17-.39-.11-.1-.25-.18-.43-.24-.17-.06-.41-.12-.7-.2-.42-.1-.75-.2-1.01-.3s-.48-.25-.66-.46c-.18-.21-.28-.5-.28-.85,0-.3,.08-.58,.25-.82,.16-.25,.41-.44,.74-.59,.33-.15,.73-.22,1.21-.22,.33,0,.66,.04,.98,.12,.32,.08,.6,.2,.83,.36l-.32,.79c-.24-.14-.49-.25-.75-.32-.26-.07-.51-.11-.76-.11-.4,0-.7,.07-.89,.2-.19,.13-.29,.31-.29,.54,0,.16,.06,.28,.17,.38,.11,.1,.25,.18,.43,.23,.17,.06,.41,.12,.7,.2,.41,.09,.74,.19,1,.29,.26,.1,.48,.26,.67,.46s.28,.49,.28,.84c0,.3-.08,.58-.25,.82-.16,.24-.41,.44-.75,.58s-.74,.22-1.22,.22c-.42,0-.83-.06-1.22-.18Z"/><path class="d" d="M258.34,74.99v-3.62l-1.8,3h-.45l-1.79-2.95v3.57h-.97v-5.46h.83l2.17,3.62,2.13-3.62h.83v5.46h-.95Z"/><path class="d" d="M262.6,74.71c-.45-.24-.8-.58-1.05-1.01s-.38-.91-.38-1.44,.13-1.01,.38-1.44c.25-.43,.61-.76,1.05-1.01,.45-.24,.95-.36,1.51-.36s1.06,.12,1.51,.36c.45,.24,.8,.58,1.05,1,.25,.43,.38,.91,.38,1.44s-.13,1.02-.38,1.44c-.25,.43-.61,.76-1.05,1-.45,.24-.95,.36-1.51,.36s-1.06-.12-1.51-.36Zm2.49-.77c.29-.16,.52-.39,.69-.69s.25-.62,.25-.99-.08-.69-.25-.99c-.17-.29-.4-.52-.69-.69-.29-.16-.62-.25-.98-.25s-.69,.08-.98,.25c-.29,.16-.52,.39-.69,.69-.17,.29-.25,.62-.25,.99s.08,.69,.25,.99,.4,.52,.69,.69c.29,.16,.62,.25,.98,.25s.69-.08,.98-.25Z"/><path class="d" d="M201.29,81.91v1.93h-1.01v-1.91l-2.15-3.55h1.08l1.6,2.66,1.61-2.66h1l-2.14,3.53Z"/><path class="d" d="M207.81,78.37h2.39c.58,0,1.1,.11,1.55,.34,.45,.23,.8,.55,1.05,.96,.25,.41,.37,.89,.37,1.43s-.12,1.02-.37,1.43-.6,.73-1.05,.96c-.45,.23-.97,.34-1.55,.34h-2.39v-5.46Zm2.34,4.6c.4,0,.75-.08,1.06-.23s.54-.37,.7-.66c.16-.28,.25-.61,.25-.99s-.08-.7-.25-.99c-.16-.28-.4-.5-.7-.66s-.66-.23-1.06-.23h-1.33v3.74h1.33Z"/><path class="d" d="M219.13,82.98v.85h-4.1v-5.46h3.99v.85h-2.97v1.42h2.64v.83h-2.64v1.5h3.08Z"/><path class="d" d="M222.05,83.55c-.44-.24-.79-.58-1.05-1-.25-.43-.38-.91-.38-1.44s.13-1.02,.38-1.44c.25-.43,.6-.76,1.05-1,.44-.24,.94-.36,1.49-.36,.45,0,.86,.08,1.23,.23,.37,.16,.68,.38,.94,.68l-.66,.62c-.4-.43-.88-.64-1.46-.64-.37,0-.71,.08-1.01,.25-.3,.16-.53,.39-.69,.68-.17,.29-.25,.62-.25,.99s.08,.7,.25,.99c.17,.29,.4,.52,.69,.68,.3,.16,.63,.25,1.01,.25,.58,0,1.06-.22,1.46-.65l.66,.62c-.25,.3-.57,.52-.94,.68-.37,.16-.78,.23-1.23,.23-.55,0-1.05-.12-1.49-.36Z"/><path class="d" d="M228.4,83.55c-.45-.24-.8-.58-1.05-1.01s-.38-.91-.38-1.44,.13-1.01,.38-1.44c.25-.43,.61-.76,1.05-1.01,.45-.24,.95-.36,1.51-.36s1.06,.12,1.51,.36c.45,.24,.8,.58,1.05,1,.25,.43,.38,.91,.38,1.44s-.13,1.02-.38,1.44c-.25,.43-.61,.76-1.05,1-.45,.24-.95,.36-1.51,.36s-1.06-.12-1.51-.36Zm2.49-.77c.29-.16,.52-.39,.69-.69s.25-.62,.25-.99-.08-.69-.25-.99c-.17-.29-.4-.52-.69-.69-.29-.16-.62-.25-.98-.25s-.69,.08-.98,.25c-.29,.16-.52,.39-.69,.69-.17,.29-.25,.62-.25,.99s.08,.69,.25,.99,.4,.52,.69,.69c.29,.16,.62,.25,.98,.25s.69-.08,.98-.25Z"/><path class="d" d="M238.27,83.83l-1.12-1.6s-.12,0-.21,0h-1.23v1.59h-1.01v-5.46h2.25c.47,0,.89,.08,1.24,.23s.62,.38,.81,.67,.28,.64,.28,1.04-.1,.76-.3,1.06c-.2,.3-.49,.52-.86,.66l1.26,1.79h-1.09Zm-.37-4.32c-.23-.19-.56-.28-1.01-.28h-1.19v2.18h1.19c.44,0,.78-.09,1.01-.29,.23-.19,.34-.46,.34-.81s-.11-.62-.34-.8Z"/><path class="d" d="M244.72,82.57h-2.73l-.54,1.26h-1.05l2.46-5.46h1l2.46,5.46h-1.06l-.55-1.26Zm-.34-.8l-1.03-2.39-1.02,2.39h2.05Z"/><path class="d" d="M248.76,83.55c-.44-.24-.79-.58-1.05-1-.25-.43-.38-.91-.38-1.44s.13-1.02,.38-1.44c.25-.43,.6-.76,1.05-1,.44-.24,.94-.36,1.49-.36,.45,0,.86,.08,1.23,.23,.37,.16,.68,.38,.94,.68l-.66,.62c-.4-.43-.88-.64-1.46-.64-.37,0-.71,.08-1.01,.25-.3,.16-.53,.39-.69,.68-.17,.29-.25,.62-.25,.99s.08,.7,.25,.99c.17,.29,.4,.52,.69,.68,.3,.16,.63,.25,1.01,.25,.58,0,1.06-.22,1.46-.65l.66,.62c-.25,.3-.57,.52-.94,.68-.37,.16-.78,.23-1.23,.23-.55,0-1.05-.12-1.49-.36Z"/><path class="d" d="M254.18,78.37h1.01v5.46h-1.01v-5.46Z"/><path class="d" d="M258.49,83.55c-.45-.24-.8-.58-1.05-1.01s-.38-.91-.38-1.44,.13-1.01,.38-1.44c.25-.43,.61-.76,1.05-1.01,.45-.24,.95-.36,1.51-.36s1.06,.12,1.51,.36c.45,.24,.8,.58,1.05,1,.25,.43,.38,.91,.38,1.44s-.13,1.02-.38,1.44c-.25,.43-.61,.76-1.05,1-.45,.24-.95,.36-1.51,.36s-1.06-.12-1.51-.36Zm2.49-.77c.29-.16,.52-.39,.69-.69s.25-.62,.25-.99-.08-.69-.25-.99c-.17-.29-.4-.52-.69-.69-.29-.16-.62-.25-.98-.25s-.69,.08-.98,.25c-.29,.16-.52,.39-.69,.69-.17,.29-.25,.62-.25,.99s.08,.69,.25,.99,.4,.52,.69,.69c.29,.16,.62,.25,.98,.25s.69-.08,.98-.25Zm-.58-5.92h1.15l-1.36,1.07h-.84l1.05-1.07Z"/><path class="d" d="M269.65,78.37v5.46h-.83l-3.01-3.7v3.7h-1.01v-5.46h.83l3.01,3.7v-3.7h1.01Z"/></g><path class="d" d="M278.08,85.4c.26,.15,.46,.35,.6,.61s.22,.55,.22,.87-.07,.62-.22,.88c-.15,.26-.35,.47-.6,.61s-.55,.22-.87,.22-.62-.07-.88-.22c-.26-.15-.46-.35-.6-.61-.15-.26-.22-.55-.22-.88s.07-.61,.22-.87c.14-.26,.35-.46,.6-.61,.26-.15,.55-.22,.88-.22s.61,.07,.87,.22Zm.1,2.48c.25-.26,.37-.59,.37-.99s-.12-.74-.37-.99c-.25-.26-.57-.38-.97-.38s-.73,.13-.97,.38-.36,.59-.36,.99,.12,.74,.36,.99c.24,.26,.57,.38,.97,.38s.73-.13,.97-.38Zm-.33-1.01c-.07,.09-.17,.16-.29,.2l.47,.69h-.53l-.4-.66h-.14v.67h-.43v-1.8h.8c.19,0,.34,.05,.46,.15,.11,.1,.17,.24,.17,.41,0,.13-.04,.25-.1,.34Zm-.89-.13h.34c.06,0,.11-.02,.15-.05,.04-.03,.06-.08,.06-.14s-.02-.11-.06-.14c-.04-.03-.09-.05-.15-.05h-.34v.38Z"/><path class="d" d="M2.51,73.59v2.38c-.76,.27-1.51,.57-2.24,.89v-2.42c.72-.3,1.47-.58,2.24-.84Z"/><path class="d" d="M.27,74.43v2.42c.73-.32,1.48-.61,2.24-.89v-2.38c-.77,.27-1.52,.55-2.24,.84Z"/><path class="d" d="M14.85,71.2c-4.07,.22-8.07,.97-11.91,2.25l-.42,.14v2.38c.07-.03,.14-.04,.21-.08,4.11-1.96,3.19-2.3,12.13-4.66v-.03Z"/><path class="d" d="M99.28,121.23H62.44s0-.05,0-.07c.16-1.52,.24-3.07,.24-4.62,0-10.27-3.5-20.24-9.89-28.25,0,0,0,.01-.01,.02,5.05,7.33,7.66,19.37,7.66,28.23,0,1.56-.08,3.14-.25,4.69H2.79V36.99L51.2,3.4l45.48,31.55-15.67,2.14,.04,.56h24.43L51.2,0,0,35.52V124.03H102.72v-19.05h-3.42l-.02,16.25ZM.27,74.43c.72-.3,1.47-.58,2.24-.84v2.38c-.76,.27-1.51,.57-2.24,.89v-2.42Z"/><g><path class="e" d="M32.66,74.54c0,.09-.03,.65-.11,1.61h0c-.16,1.8-.56,4.97-1.5,8.92-.25,1.06-.54,2.17-.88,3.33-.38,1.3-.81,2.65-1.31,4.05-.14,.4-.29,.8-.45,1.21-.05,.14-.1,.28-.16,.42-.79,2.04-1.75,4.22-2.93,6.47-.17,.34-.35,.67-.54,1.01-.11,.2-.22,.4-.34,.6-.52,.92-1.07,1.85-1.67,2.78-.85,1.33-1.77,2.65-2.78,3.96-.35,.45-.71,.9-1.08,1.35-3.3,4.01-7.43,7.82-12.6,10.98H2.82c6.25-3.29,11.08-7.58,14.81-12.12,.25-.3,.49-.6,.73-.9,.73-.93,1.41-1.86,2.05-2.8,.37-.54,.73-1.08,1.07-1.62,.63-.99,1.21-1.98,1.75-2.96,.3-.54,.58-1.07,.85-1.6,1.07-2.09,1.95-4.12,2.67-6.01,.01-.03,.03-.07,.04-.1,.15-.39,.29-.77,.42-1.15,.48-1.33,.89-2.62,1.25-3.87,.05-.17,.1-.33,.14-.49,1.46-5.15,2.02-9.41,2.22-11.58h0c.1-.97,.11-1.51,.12-1.54l.91,.03h.1l.71,.03Z"/><path class="e" d="M31.43,76.71l.59-.29c3.55-1.74,5.77-4.21,6.6-7.33,1.57-5.89-2.44-11.9-2.61-12.16l-.49-.72-.72,.5c-4.11,2.87-6.42,6.2-6.86,9.9-.64,5.35,2.9,9.43,3.05,9.6l.44,.49Zm3.61-18.04c.96,1.71,2.98,5.99,1.91,9.99-.65,2.43-2.35,4.41-5.07,5.89-.84-1.17-2.66-4.18-2.23-7.75,.36-2.96,2.17-5.69,5.39-8.13Z"/><path class="e" d="M27.01,91.97c.36-.02,.58-.05,.63-.06l.65-.09,.08-.65c.48-3.93-.37-7.14-2.52-9.53-4.07-4.53-11.3-4.46-11.61-4.46h-.88l.03,.89c.16,5.01,1.68,8.77,4.54,11.16,3.36,2.81,7.52,2.86,9.08,2.76Zm-11.85-13.04c1.95,.13,6.64,.78,9.41,3.86,1.68,1.87,2.4,4.38,2.16,7.47-1.44,.06-4.96-.06-7.71-2.37-2.28-1.92-3.58-4.93-3.86-8.95Z"/><path class="e" d="M28.25,91.08c.61-.99,1.25-1.88,1.92-2.67,2.23-2.64,4.77-4.23,7.58-4.73,1.07-.19,2.09-.2,3.05-.11,.61,.06,1.2,.17,1.75,.3,2.88,.71,4.84,2.23,4.96,2.32l.52,.41-.26,.61c-1.13,2.66-2.68,4.64-4.63,5.9-.53,.34-1.09,.63-1.67,.87-.21,.09-.42,.16-.64,.23-.91,.3-1.83,.46-2.73,.51-4.2,.27-8.09-1.65-9.23-2.27-.18-.1-.29-.17-.32-.18l-.75-.45,.46-.74Zm12.04,1.49c.36-.12,.71-.26,1.05-.43,.59-.29,1.14-.65,1.66-1.07,1.15-.95,2.11-2.25,2.89-3.89-.63-.4-1.78-1.04-3.23-1.48-.54-.16-1.13-.3-1.75-.37-.9-.12-1.87-.12-2.88,.06-2.93,.52-5.56,2.48-7.82,5.83,1.76,.86,6.14,2.65,10.08,1.36Z"/><path class="e" d="M6.13,90.95c.03-.28,.07-.55,.12-.83l.13-.86,.24,.04,.63,.11c.22,.04,3.67,.66,7.03,2.7,1.79,1.09,3.56,2.58,4.78,4.6,.14,.22,.27,.46,.38,.69,.71,1.37,1.11,2.86,1.21,4.45,.06,.88,.02,1.8-.11,2.75-.04,.27-.08,.54-.13,.82-.14,.73-.33,1.49-.58,2.26l-.03,.09-.17,.53h-.31l-.35-.03s-.27-.01-.62-.06c-.29-.03-.68-.09-1.14-.18-.24-.05-.51-.11-.79-.17-2.15-.54-5.24-1.76-7.53-4.56-2.5-3.05-3.43-7.2-2.77-12.35Zm4.09,11.24c2.26,2.77,5.53,3.79,7.39,4.15,.3,.06,.56,.1,.78,.13,.17-.6,.29-1.18,.38-1.74,.44-2.7,.04-5.09-1.19-7.13-1.07-1.77-2.65-3.08-4.26-4.05-2.13-1.28-4.32-1.96-5.5-2.25v.1c-.55,4.55,.26,8.17,2.4,10.8Z"/><path class="e" d="M19.32,108.28l.47-.51h0l.1-.11c.94-1.03,1.9-1.93,2.88-2.7,.84-.67,1.69-1.24,2.55-1.71,.23-.13,.47-.25,.71-.36h0c.3-.15,.59-.28,.89-.4,1.62-.66,3.27-.98,4.94-.96,6.01,.08,10,4.59,10.17,4.78l.24,.27,.2,.22-.17,.25-.2,.3c-2.45,3.68-5.5,5.77-9.06,6.23-.07,0-.15,.02-.22,.03-.17,.02-.35,.03-.52,.04-.43,.03-.86,.03-1.28,.01-4.11-.17-7.75-2.32-9.65-3.68-.75-.53-1.23-.94-1.36-1.06-.02-.01-.02-.02-.03-.03l-.66-.58,.02-.02Zm11.03,3.59c.61,.07,1.24,.09,1.87,.04,.2-.01,.4-.03,.6-.06,2.86-.37,5.36-2.02,7.44-4.9-1.14-1.08-4.29-3.67-8.44-3.72-1.29-.02-2.57,.21-3.84,.68-.54,.2-1.07,.44-1.61,.72-.77,.41-1.54,.91-2.3,1.5-.76,.59-1.52,1.26-2.27,2.02,.17,.13,.37,.27,.59,.43,1.63,1.15,4.63,2.93,7.96,3.29Z"/></g></g></g></svg>