<?xml version="1.0" encoding="UTF-8"?><svg xmlns="http://www.w3.org/2000/svg" viewBox="0 0 269.54 119.69"><defs><style>.d{font-family:Montserrat-SemiBold, Montserrat;font-size:7.53px;}.d,.e,.f{fill:#fffdfb;}.g{letter-spacing:.1em;}.h{letter-spacing:.1em;}.i{letter-spacing:.1em;}.f{font-family:Poppins-Regular, Poppins;font-size:8.06px;}.j{letter-spacing:.09em;}.k{fill:#d3c1af;}.l{letter-spacing:.09em;}</style></defs><g id="a"/><g id="b"><g id="c"><g><path class="e" d="M82.37,65.55h-17.03v11.92c0,1.12,.05,1.84,.16,2.14,.11,.31,.3,.57,.59,.78s.79,.32,1.51,.32v.32h-8.02v-.32c1.46,.1,2.19-.61,2.19-2.13v-24.93c0-1.42-.12-2.31-.35-2.69s-.85-.59-1.84-.63v-.32h8.02v.32c-.88,.06-1.48,.22-1.79,.5-.31,.28-.46,.86-.46,1.73v12.13h17.03v-11.1c0-1.26-.11-2.12-.33-2.58-.22-.46-.82-.68-1.82-.68v-.32h7.92v.32c-.63,0-1.09,.07-1.4,.22-.31,.15-.51,.38-.63,.68s-.17,1.09-.17,2.36v23.8c0,1.22,.06,1.98,.17,2.28,.11,.3,.31,.55,.58,.75,.28,.2,.76,.29,1.44,.29v.32h-7.92v-.32c.86,0,1.43-.18,1.72-.53,.29-.35,.43-1.3,.43-2.84v-11.79Z"/><path class="e" d="M107.84,49.55c4.35,0,7.91,1.32,10.67,3.97,2.76,2.65,4.15,5.95,4.15,9.91,0,5.09-1.6,9.38-4.8,12.86-3.2,3.48-7.45,5.22-12.74,5.22-4.29,0-7.81-1.4-10.55-4.21-2.74-2.81-4.11-6.18-4.11-10.11,0-2.65,.66-5.38,1.98-8.17s3.31-5.07,5.96-6.83,5.8-2.64,9.43-2.64Zm-.13,30.32c2.13,0,4.24-.57,6.32-1.72,2.08-1.14,3.71-2.72,4.91-4.73,1.19-2.01,1.79-4.07,1.79-6.19,0-3-.8-5.73-2.41-8.19-1.61-2.46-3.69-4.38-6.25-5.77s-4.93-2.08-7.11-2.08c-3.07,0-5.86,1.16-8.37,3.47-2.51,2.32-3.76,5.19-3.76,8.63,0,4.39,1.53,8.25,4.59,11.58,3.06,3.33,6.49,4.99,10.3,4.99Z"/><path class="e" d="M153.27,50.01h4.9v.32c-1.65,.08-2.48,.95-2.48,2.59,0,.35,.04,.84,.13,1.45l3.26,23.49c.2,1.17,.42,1.92,.66,2.25,.25,.33,.75,.53,1.53,.6v.32h-6.97v-.32c.93,.03,1.39-.42,1.39-1.34,0-.21-.04-.62-.13-1.23l-3.18-22.78-11.12,25.67h-.21l-11.18-25.62-3.15,22.91c-.06,.35-.08,.75-.08,1.19,0,.81,.47,1.21,1.42,1.21v.32h-4.74v-.32c.72,0,1.18-.09,1.38-.26,.2-.17,.36-.46,.47-.84,.11-.39,.2-.82,.25-1.29l3.55-25.05c-.58-1.39-1.15-2.23-1.73-2.51-.58-.28-1.13-.42-1.67-.42v-.32h5.85l10.91,25.37,10.94-25.37Z"/><path class="e" d="M163.23,50.37v-.36h19.5v4.27h-.32c-.42-1.59-.78-2.52-1.06-2.8-.29-.28-.99-.42-2.12-.42h-10.23v13.92h9.5c.94,0,1.54-.09,1.79-.26,.25-.17,.39-.43,.4-.77h.32v2.93h-.32c-.07-.41-.24-.68-.5-.82-.26-.14-.74-.21-1.44-.21h-9.75v9.58c0,1.45,.13,2.49,.4,3.13s.69,1.04,1.27,1.2,1.46,.24,2.64,.24h5.47c1.74,0,2.85-.06,3.33-.18,.48-.12,.89-.36,1.23-.71,.34-.36,.6-1.13,.78-2.33h.32v4.25h-21.2v-.32c.72-.04,1.26-.18,1.63-.41,.37-.23,.56-.83,.56-1.8v-25.04c0-1.14-.1-1.94-.29-2.4-.2-.46-.83-.69-1.9-.69Z"/><path class="k" d="M109.76,88.19v-.32h14.23c3.62,0,6.48,.28,8.58,.85,2.1,.57,3.93,1.46,5.48,2.68,1.56,1.22,2.79,2.78,3.71,4.68,.91,1.9,1.37,4.03,1.37,6.37s-.47,4.48-1.42,6.66c-.95,2.18-2.24,4.06-3.86,5.64-1.63,1.58-3.34,2.66-5.15,3.24-1.8,.58-4.59,.87-8.37,.87h-14.57v-.32h.38c.76,0,1.26-.31,1.5-.92,.24-.61,.36-1.71,.36-3.31v-22.58c0-1.68-.14-2.7-.43-3.05-.29-.35-.89-.53-1.8-.53Zm10.57,.34h-4.76v24.06c0,1.52,.26,2.64,.77,3.38,.51,.74,1.39,1.27,2.62,1.6,1.23,.33,2.9,.49,4.99,.49,5.81,0,9.89-1.49,12.24-4.47s3.53-6.24,3.53-9.76c0-4.14-1.61-7.73-4.83-10.76-3.22-3.03-8.07-4.55-14.56-4.55Z"/><path class="k" d="M145.3,88.24v-.36h19.5v4.27h-.32c-.42-1.59-.78-2.52-1.06-2.8-.29-.28-.99-.42-2.12-.42h-10.23v13.92h9.5c.94,0,1.54-.09,1.79-.26,.25-.17,.39-.43,.4-.77h.32v2.93h-.32c-.07-.41-.24-.68-.5-.82-.26-.14-.74-.21-1.44-.21h-9.75v9.58c0,1.45,.13,2.49,.4,3.13s.69,1.04,1.27,1.2,1.46,.24,2.64,.24h5.47c1.74,0,2.85-.06,3.33-.18,.48-.12,.89-.36,1.23-.71,.34-.36,.6-1.13,.78-2.33h.32v4.25h-21.2v-.32c.72-.04,1.26-.18,1.63-.41,.37-.23,.56-.83,.56-1.8v-25.04c0-1.14-.1-1.94-.29-2.4-.2-.46-.83-.69-1.9-.69Z"/><path class="k" d="M183.85,88.28l1.47,3.87-.25,.04s-.39-.43-1.17-1.24c-.78-.81-1.67-1.44-2.67-1.88-1-.44-2.14-.66-3.4-.66-2.12,0-3.8,.61-5.04,1.82-1.24,1.21-1.86,2.68-1.86,4.39,0,1.14,.29,2.13,.87,2.98,.58,.85,1.8,1.64,3.65,2.38,3.18,1.07,5.36,1.88,6.54,2.42,1.17,.54,2.3,1.46,3.39,2.75s1.63,2.94,1.63,4.96c0,.84-.1,1.64-.29,2.41-.2,.76-.51,1.5-.95,2.21-.44,.71-.96,1.35-1.57,1.93-.61,.58-1.23,1.02-1.86,1.33-.63,.3-1.63,.53-2.99,.68-1.36,.15-2.26,.23-2.69,.23h-8.27v-9.01h.32c.03,2.99,.73,5.07,2.11,6.25,1.38,1.18,3.52,1.77,6.42,1.77,2.64,0,4.64-.62,6.01-1.87s2.05-2.75,2.05-4.51c0-1.07-.24-1.98-.72-2.73-.48-.75-1.14-1.41-2-1.98-.86-.57-2.48-1.26-4.86-2.08-2.37-.83-4.04-1.56-5-2.19-.96-.62-1.77-1.56-2.41-2.82-.65-1.25-.97-2.54-.97-3.84,0-2.4,.82-4.41,2.47-6.04,1.65-1.63,3.81-2.44,6.5-2.44,1.04,0,2.16,.12,3.37,.36,1.21,.24,1.88,.39,2.02,.46,.06,.03,.11,.04,.17,.04Z"/><path class="k" d="M196.85,87.88v.32c-.41-.04-.86,.02-1.36,.19-.5,.17-.79,.41-.88,.74-.09,.32-.14,1.09-.14,2.29v23.8c0,1.29,.05,2.08,.16,2.37,.1,.29,.31,.53,.61,.72s.84,.28,1.61,.28v.32h-8.27v-.32c1.04,0,1.68-.2,1.94-.6,.25-.4,.38-1.31,.38-2.72v-23.56c0-1.47-.14-2.44-.42-2.89s-.91-.66-1.9-.6v-.32h8.27Z"/><path class="k" d="M229.26,118.58v.32h-12.51c-2.4,0-4.5-.26-6.31-.78-1.8-.52-3.64-1.5-5.52-2.96-1.87-1.45-3.39-3.26-4.55-5.42-1.16-2.16-1.74-4.37-1.74-6.63,0-2.47,.73-4.93,2.18-7.39,1.45-2.46,3.52-4.45,6.2-5.99,2.68-1.54,5.72-2.31,9.12-2.31,3.05,0,6.27,.67,9.66,2.02l1.28,3.58h-.31c-1.08-1.38-2.56-2.52-4.43-3.42-1.87-.91-3.96-1.36-6.26-1.36-4,0-7.27,1.5-9.83,4.52-2.55,3.01-3.83,6.75-3.83,11.21,0,1.85,.21,3.5,.63,4.96,.42,1.45,1.21,2.88,2.37,4.29,1.16,1.41,2.4,2.45,3.73,3.12,1.33,.67,2.81,1.13,4.45,1.39,1.64,.26,2.95,.38,3.92,.35l1.66-.04c1.88-.07,3.06-.25,3.53-.53,.47-.28,.71-1,.71-2.15v-4.7c0-.91-.19-1.53-.57-1.84s-.92-.45-1.62-.41v-.32h8.02v.32c-.9,0-1.5,.17-1.8,.52-.3,.35-.45,1.02-.45,2.02v4.87c0,.98,.13,1.68,.39,2.11,.26,.43,.73,.64,1.42,.64h.44Z"/><path class="k" d="M256.68,87.88h6v.32c-.91,.03-1.54,.22-1.89,.58-.35,.36-.53,1.11-.53,2.26v28.23l-24.74-26.34v22.93c0,.73,.06,1.27,.17,1.62s.27,.59,.48,.72,.74,.25,1.58,.38v.32h-5.96v-.32c1.07,0,1.73-.19,1.99-.57s.39-1.28,.39-2.71v-20.98c0-1.84-.26-3.34-.77-4.5-.51-1.16-1.69-1.71-3.55-1.62v-.32h5.83l23.24,24.75v-21.89c0-1.18-.21-1.9-.63-2.16-.42-.26-.96-.39-1.62-.39v-.32Z"/></g><text class="d" transform="translate(191.25 72.36)"><tspan class="h"><tspan x="0" y="0">INTERIORISMO </tspan></tspan><tspan class="i" x="0" y="8.53">Y D</tspan><tspan class="g" x="15.53" y="8.53">E</tspan><tspan class="l" x="21.3" y="8.53">C</tspan><tspan class="i" x="27.41" y="8.53">OR</tspan><tspan class="j" x="40.76" y="8.53">A</tspan><tspan class="i" x="47.08" y="8.53">CIÓN</tspan></text><text class="f" transform="translate(265.43 87.89)"><tspan x="0" y="0">®</tspan></text><g><path class="e" d="M95.8,116.98H60.25s0-.05,0-.07c.16-1.47,.23-2.97,.23-4.46,0-9.91-3.38-19.54-9.54-27.26,0,0,0,.01-.01,.02,4.87,7.08,7.4,18.69,7.4,27.24,0,1.5-.08,3.02-.24,4.52H2.7V35.69L49.41,3.29l43.88,30.45-15.12,2.06,.04,.54h23.57L49.41,0,0,34.28V119.69H99.12v-18.39h-3.3l-.02,15.68ZM2.43,73.31c-.73,.26-1.46,.55-2.16,.86v-2.34c.69-.29,1.42-.56,2.16-.81v2.3Z"/><path class="e" d="M2.43,71.01v2.3c-.73,.26-1.46,.55-2.16,.86v-2.34c.69-.29,1.42-.56,2.16-.81Z"/></g><path class="e" d="M.26,71.82v2.34c.71-.31,1.43-.59,2.16-.86v-2.3c-.74,.26-1.47,.53-2.16,.81Z"/><path class="e" d="M14.33,68.7c-3.93,.21-7.79,.94-11.49,2.17l-.41,.14v2.29c.07-.02,.14-.04,.2-.07,3.96-1.89,3.08-2.22,11.7-4.5v-.03Z"/><g><path class="k" d="M1.34,117.68l.73,1.5c.42-.2,.82-.41,1.22-.62,6.32-3.3,11.2-7.61,14.96-12.17,.36-.43,.71-.86,1.04-1.3,.98-1.26,1.87-2.54,2.68-3.82,.58-.9,1.11-1.79,1.61-2.68,.11-.19,.22-.39,.32-.58,.18-.33,.35-.65,.52-.98,1.14-2.17,2.07-4.27,2.83-6.24,.06-.14,.1-.27,.16-.41,.15-.39,.29-.78,.43-1.17,.48-1.34,.9-2.65,1.26-3.91,.33-1.12,.6-2.19,.85-3.22,.91-3.82,1.29-6.88,1.45-8.61,.09-.92,.11-1.47,.11-1.55l-.69-.02h-.09l-.88-.03s-.02,.55-.11,1.48h0c-.2,2.09-.73,6.2-2.14,11.18-.48,1.69-1.06,3.48-1.76,5.32-.01,.03-.02,.07-.04,.1-.69,1.83-1.54,3.78-2.57,5.8-.26,.51-.53,1.03-.82,1.54-.52,.94-1.08,1.9-1.69,2.86-.33,.52-.67,1.05-1.03,1.57-.62,.9-1.28,1.81-1.98,2.7-.23,.29-.46,.58-.7,.87-3.75,4.57-8.67,8.88-15.09,12.11l-.58,.29Z"/><path class="k" d="M30.33,74.02l.57-.28c3.43-1.68,5.57-4.06,6.37-7.07,1.51-5.68-2.36-11.49-2.52-11.73l-.47-.7-.69,.48c-3.97,2.77-6.19,5.99-6.62,9.55-.62,5.16,2.8,9.1,2.94,9.27l.42,.48Zm3.49-17.4c.92,1.65,2.88,5.78,1.85,9.64-.63,2.34-2.27,4.25-4.89,5.68-.81-1.13-2.56-4.04-2.15-7.48,.35-2.85,2.09-5.49,5.2-7.84Z"/><path class="k" d="M26.06,88.75c.35-.02,.56-.05,.61-.06l.63-.09,.08-.63c.47-3.79-.35-6.89-2.43-9.2-3.93-4.37-10.9-4.31-11.2-4.3h-.84l.03,.86c.15,4.84,1.63,8.46,4.38,10.76,3.24,2.71,7.25,2.76,8.76,2.66Zm-11.43-12.59c1.88,.13,6.41,.75,9.08,3.72,1.62,1.81,2.32,4.23,2.08,7.21-1.39,.06-4.78-.06-7.44-2.29-2.2-1.85-3.45-4.75-3.73-8.64Z"/><path class="k" d="M27.26,87.89c.59-.95,1.21-1.81,1.85-2.58,2.15-2.55,4.6-4.08,7.32-4.56,1.03-.18,2.02-.2,2.94-.1,.59,.06,1.15,.16,1.69,.29,2.78,.68,4.67,2.15,4.79,2.24l.5,.39-.25,.59c-1.09,2.57-2.59,4.47-4.47,5.69-.51,.33-1.05,.61-1.61,.84-.2,.08-.41,.16-.62,.23-.88,.29-1.76,.44-2.64,.5-4.05,.26-7.81-1.59-8.9-2.19-.18-.1-.28-.16-.31-.18l-.73-.43,.45-.72Zm11.62,1.44c.35-.11,.69-.25,1.02-.41,.57-.28,1.1-.62,1.6-1.04,1.11-.92,2.04-2.18,2.79-3.75-.61-.39-1.72-1.01-3.12-1.42-.52-.16-1.09-.29-1.69-.36-.87-.11-1.81-.12-2.77,.05-2.83,.5-5.36,2.39-7.55,5.62,1.7,.83,5.93,2.55,9.72,1.31Z"/><path class="k" d="M5.91,87.76c.03-.27,.07-.53,.11-.8l.13-.83,.23,.04,.6,.1c.21,.04,3.54,.64,6.78,2.6,1.73,1.05,3.43,2.49,4.62,4.44,.13,.22,.26,.44,.37,.66,.68,1.32,1.07,2.76,1.17,4.3,.05,.85,.02,1.74-.1,2.65-.04,.26-.08,.52-.13,.79-.14,.71-.32,1.44-.56,2.18l-.03,.09-.16,.52h-.3l-.34-.03s-.26-.01-.6-.05c-.28-.03-.66-.09-1.1-.17-.23-.05-.49-.1-.76-.17-2.08-.52-5.06-1.7-7.27-4.4-2.41-2.94-3.31-6.95-2.67-11.92Zm3.95,10.85c2.18,2.68,5.34,3.65,7.13,4.01,.29,.06,.54,.1,.75,.13,.16-.57,.28-1.13,.37-1.68,.42-2.61,.04-4.91-1.15-6.88-1.03-1.7-2.55-2.97-4.11-3.91-2.05-1.23-4.17-1.89-5.31-2.18v.1c-.53,4.39,.25,7.89,2.32,10.42Z"/><path class="k" d="M18.65,104.48l.46-.5h0l.1-.11c.91-.99,1.84-1.86,2.78-2.61,.81-.65,1.63-1.2,2.46-1.65,.23-.13,.45-.24,.68-.35h0c.29-.14,.57-.27,.86-.39,1.57-.64,3.16-.95,4.77-.93,5.8,.07,9.65,4.43,9.81,4.61l.23,.26,.19,.22-.16,.24-.19,.29c-2.36,3.55-5.31,5.57-8.74,6.01-.07,0-.14,.02-.22,.02-.17,.02-.33,.03-.5,.04-.42,.03-.83,.03-1.24,.01-3.96-.16-7.48-2.24-9.31-3.55-.72-.51-1.19-.91-1.32-1.02-.01-.01-.02-.02-.03-.03l-.63-.56,.02-.02Zm10.64,3.46c.59,.07,1.19,.08,1.8,.04,.19-.01,.39-.03,.58-.06,2.76-.36,5.17-1.95,7.18-4.73-1.1-1.05-4.14-3.54-8.14-3.59-1.24-.02-2.48,.21-3.71,.66-.52,.19-1.03,.42-1.55,.69-.74,.4-1.49,.88-2.22,1.44-.74,.57-1.46,1.22-2.19,1.95,.16,.12,.35,.26,.57,.41,1.57,1.11,4.46,2.82,7.68,3.17Z"/></g><g><path class="e" d="M82.37,65.55h-17.03v11.92c0,1.12,.05,1.84,.16,2.14,.11,.31,.3,.57,.59,.78s.79,.32,1.51,.32v.32h-8.02v-.32c1.46,.1,2.19-.61,2.19-2.13v-24.93c0-1.42-.12-2.31-.35-2.69s-.85-.59-1.84-.63v-.32h8.02v.32c-.88,.06-1.48,.22-1.79,.5-.31,.28-.46,.86-.46,1.73v12.13h17.03v-11.1c0-1.26-.11-2.12-.33-2.58-.22-.46-.82-.68-1.82-.68v-.32h7.92v.32c-.63,0-1.09,.07-1.4,.22-.31,.15-.51,.38-.63,.68s-.17,1.09-.17,2.36v23.8c0,1.22,.06,1.98,.17,2.28,.11,.3,.31,.55,.58,.75,.28,.2,.76,.29,1.44,.29v.32h-7.92v-.32c.86,0,1.43-.18,1.72-.53,.29-.35,.43-1.3,.43-2.84v-11.79Z"/><path class="e" d="M107.84,49.55c4.35,0,7.91,1.32,10.67,3.97,2.76,2.65,4.15,5.95,4.15,9.91,0,5.09-1.6,9.38-4.8,12.86-3.2,3.48-7.45,5.22-12.74,5.22-4.29,0-7.81-1.4-10.55-4.21-2.74-2.81-4.11-6.18-4.11-10.11,0-2.65,.66-5.38,1.98-8.17s3.31-5.07,5.96-6.83,5.8-2.64,9.43-2.64Zm-.13,30.32c2.13,0,4.24-.57,6.32-1.72,2.08-1.14,3.71-2.72,4.91-4.73,1.19-2.01,1.79-4.07,1.79-6.19,0-3-.8-5.73-2.41-8.19-1.61-2.46-3.69-4.38-6.25-5.77s-4.93-2.08-7.11-2.08c-3.07,0-5.86,1.16-8.37,3.47-2.51,2.32-3.76,5.19-3.76,8.63,0,4.39,1.53,8.25,4.59,11.58,3.06,3.33,6.49,4.99,10.3,4.99Z"/><path class="e" d="M153.27,50.01h4.9v.32c-1.65,.08-2.48,.95-2.48,2.59,0,.35,.04,.84,.13,1.45l3.26,23.49c.2,1.17,.42,1.92,.66,2.25,.25,.33,.75,.53,1.53,.6v.32h-6.97v-.32c.93,.03,1.39-.42,1.39-1.34,0-.21-.04-.62-.13-1.23l-3.18-22.78-11.12,25.67h-.21l-11.18-25.62-3.15,22.91c-.06,.35-.08,.75-.08,1.19,0,.81,.47,1.21,1.42,1.21v.32h-4.74v-.32c.72,0,1.18-.09,1.38-.26,.2-.17,.36-.46,.47-.84,.11-.39,.2-.82,.25-1.29l3.55-25.05c-.58-1.39-1.15-2.23-1.73-2.51-.58-.28-1.13-.42-1.67-.42v-.32h5.85l10.91,25.37,10.94-25.37Z"/><path class="e" d="M163.23,50.37v-.36h19.5v4.27h-.32c-.42-1.59-.78-2.52-1.06-2.8-.29-.28-.99-.42-2.12-.42h-10.23v13.92h9.5c.94,0,1.54-.09,1.79-.26,.25-.17,.39-.43,.4-.77h.32v2.93h-.32c-.07-.41-.24-.68-.5-.82-.26-.14-.74-.21-1.44-.21h-9.75v9.58c0,1.45,.13,2.49,.4,3.13s.69,1.04,1.27,1.2,1.46,.24,2.64,.24h5.47c1.74,0,2.85-.06,3.33-.18,.48-.12,.89-.36,1.23-.71,.34-.36,.6-1.13,.78-2.33h.32v4.25h-21.2v-.32c.72-.04,1.26-.18,1.63-.41,.37-.23,.56-.83,.56-1.8v-25.04c0-1.14-.1-1.94-.29-2.4-.2-.46-.83-.69-1.9-.69Z"/><path class="k" d="M109.76,88.19v-.32h14.23c3.62,0,6.48,.28,8.58,.85,2.1,.57,3.93,1.46,5.48,2.68,1.56,1.22,2.79,2.78,3.71,4.68,.91,1.9,1.37,4.03,1.37,6.37s-.47,4.48-1.42,6.66c-.95,2.18-2.24,4.06-3.86,5.64-1.63,1.58-3.34,2.66-5.15,3.24-1.8,.58-4.59,.87-8.37,.87h-14.57v-.32h.38c.76,0,1.26-.31,1.5-.92,.24-.61,.36-1.71,.36-3.31v-22.58c0-1.68-.14-2.7-.43-3.05-.29-.35-.89-.53-1.8-.53Zm10.57,.34h-4.76v24.06c0,1.52,.26,2.64,.77,3.38,.51,.74,1.39,1.27,2.62,1.6,1.23,.33,2.9,.49,4.99,.49,5.81,0,9.89-1.49,12.24-4.47s3.53-6.24,3.53-9.76c0-4.14-1.61-7.73-4.83-10.76-3.22-3.03-8.07-4.55-14.56-4.55Z"/><path class="k" d="M145.3,88.24v-.36h19.5v4.27h-.32c-.42-1.59-.78-2.52-1.06-2.8-.29-.28-.99-.42-2.12-.42h-10.23v13.92h9.5c.94,0,1.54-.09,1.79-.26,.25-.17,.39-.43,.4-.77h.32v2.93h-.32c-.07-.41-.24-.68-.5-.82-.26-.14-.74-.21-1.44-.21h-9.75v9.58c0,1.45,.13,2.49,.4,3.13s.69,1.04,1.27,1.2,1.46,.24,2.64,.24h5.47c1.74,0,2.85-.06,3.33-.18,.48-.12,.89-.36,1.23-.71,.34-.36,.6-1.13,.78-2.33h.32v4.25h-21.2v-.32c.72-.04,1.26-.18,1.63-.41,.37-.23,.56-.83,.56-1.8v-25.04c0-1.14-.1-1.94-.29-2.4-.2-.46-.83-.69-1.9-.69Z"/><path class="k" d="M183.85,88.28l1.47,3.87-.25,.04s-.39-.43-1.17-1.24c-.78-.81-1.67-1.44-2.67-1.88-1-.44-2.14-.66-3.4-.66-2.12,0-3.8,.61-5.04,1.82-1.24,1.21-1.86,2.68-1.86,4.39,0,1.14,.29,2.13,.87,2.98,.58,.85,1.8,1.64,3.65,2.38,3.18,1.07,5.36,1.88,6.54,2.42,1.17,.54,2.3,1.46,3.39,2.75s1.63,2.94,1.63,4.96c0,.84-.1,1.64-.29,2.41-.2,.76-.51,1.5-.95,2.21-.44,.71-.96,1.35-1.57,1.93-.61,.58-1.23,1.02-1.86,1.33-.63,.3-1.63,.53-2.99,.68-1.36,.15-2.26,.23-2.69,.23h-8.27v-9.01h.32c.03,2.99,.73,5.07,2.11,6.25,1.38,1.18,3.52,1.77,6.42,1.77,2.64,0,4.64-.62,6.01-1.87s2.05-2.75,2.05-4.51c0-1.07-.24-1.98-.72-2.73-.48-.75-1.14-1.41-2-1.98-.86-.57-2.48-1.26-4.86-2.08-2.37-.83-4.04-1.56-5-2.19-.96-.62-1.77-1.56-2.41-2.82-.65-1.25-.97-2.54-.97-3.84,0-2.4,.82-4.41,2.47-6.04,1.65-1.63,3.81-2.44,6.5-2.44,1.04,0,2.16,.12,3.37,.36,1.21,.24,1.88,.39,2.02,.46,.06,.03,.11,.04,.17,.04Z"/><path class="k" d="M196.85,87.88v.32c-.41-.04-.86,.02-1.36,.19-.5,.17-.79,.41-.88,.74-.09,.32-.14,1.09-.14,2.29v23.8c0,1.29,.05,2.08,.16,2.37,.1,.29,.31,.53,.61,.72s.84,.28,1.61,.28v.32h-8.27v-.32c1.04,0,1.68-.2,1.94-.6,.25-.4,.38-1.31,.38-2.72v-23.56c0-1.47-.14-2.44-.42-2.89s-.91-.66-1.9-.6v-.32h8.27Z"/><path class="k" d="M229.26,118.58v.32h-12.51c-2.4,0-4.5-.26-6.31-.78-1.8-.52-3.64-1.5-5.52-2.96-1.87-1.45-3.39-3.26-4.55-5.42-1.16-2.16-1.74-4.37-1.74-6.63,0-2.47,.73-4.93,2.18-7.39,1.45-2.46,3.52-4.45,6.2-5.99,2.68-1.54,5.72-2.31,9.12-2.31,3.05,0,6.27,.67,9.66,2.02l1.28,3.58h-.31c-1.08-1.38-2.56-2.52-4.43-3.42-1.87-.91-3.96-1.36-6.26-1.36-4,0-7.27,1.5-9.83,4.52-2.55,3.01-3.83,6.75-3.83,11.21,0,1.85,.21,3.5,.63,4.96,.42,1.45,1.21,2.88,2.37,4.29,1.16,1.41,2.4,2.45,3.73,3.12,1.33,.67,2.81,1.13,4.45,1.39,1.64,.26,2.95,.38,3.92,.35l1.66-.04c1.88-.07,3.06-.25,3.53-.53,.47-.28,.71-1,.71-2.15v-4.7c0-.91-.19-1.53-.57-1.84s-.92-.45-1.62-.41v-.32h8.02v.32c-.9,0-1.5,.17-1.8,.52-.3,.35-.45,1.02-.45,2.02v4.87c0,.98,.13,1.68,.39,2.11,.26,.43,.73,.64,1.42,.64h.44Z"/><path class="k" d="M256.68,87.88h6v.32c-.91,.03-1.54,.22-1.89,.58-.35,.36-.53,1.11-.53,2.26v28.23l-24.74-26.34v22.93c0,.73,.06,1.27,.17,1.62s.27,.59,.48,.72,.74,.25,1.58,.38v.32h-5.96v-.32c1.07,0,1.73-.19,1.99-.57s.39-1.28,.39-2.71v-20.98c0-1.84-.26-3.34-.77-4.5-.51-1.16-1.69-1.71-3.55-1.62v-.32h5.83l23.24,24.75v-21.89c0-1.18-.21-1.9-.63-2.16-.42-.26-.96-.39-1.62-.39v-.32Z"/></g><g><path class="e" d="M191.96,67.09h.98v5.27h-.98v-5.27Z"/><path class="e" d="M199.8,67.09v5.27h-.81l-2.91-3.57v3.57h-.97v-5.27h.81l2.91,3.57v-3.57h.97Z"/><path class="e" d="M203.03,67.92h-1.75v-.83h4.47v.83h-1.75v4.44h-.98v-4.44Z"/><path class="e" d="M211.2,71.54v.82h-3.95v-5.27h3.85v.82h-2.87v1.37h2.54v.81h-2.54v1.45h2.97Z"/><path class="e" d="M216.49,72.36l-1.08-1.54s-.11,0-.2,0h-1.19v1.54h-.98v-5.27h2.17c.46,0,.85,.08,1.19,.23,.34,.15,.6,.37,.78,.65,.18,.28,.27,.62,.27,1s-.1,.74-.29,1.02c-.19,.29-.47,.5-.83,.64l1.21,1.73h-1.05Zm-.35-4.17c-.22-.18-.54-.27-.97-.27h-1.14v2.1h1.14c.43,0,.75-.09,.97-.28,.22-.18,.33-.44,.33-.78s-.11-.59-.33-.78Z"/><path class="e" d="M219.3,67.09h.98v5.27h-.98v-5.27Z"/><path class="e" d="M223.46,72.09c-.43-.23-.77-.56-1.02-.97-.25-.41-.37-.88-.37-1.39s.12-.97,.37-1.39c.25-.41,.58-.74,1.02-.97s.92-.35,1.45-.35,1.02,.12,1.45,.35c.43,.23,.77,.56,1.02,.97,.25,.41,.37,.88,.37,1.39s-.12,.98-.37,1.39c-.25,.41-.58,.73-1.02,.97-.43,.23-.92,.35-1.45,.35s-1.02-.12-1.45-.35Zm2.4-.75c.28-.16,.5-.38,.66-.66,.16-.28,.24-.6,.24-.95s-.08-.67-.24-.95-.38-.5-.66-.66c-.28-.16-.6-.24-.95-.24s-.67,.08-.95,.24c-.28,.16-.5,.38-.66,.66s-.24,.6-.24,.95,.08,.67,.24,.95c.16,.28,.38,.5,.66,.66,.28,.16,.6,.24,.95,.24s.67-.08,.95-.24Z"/><path class="e" d="M232.99,72.36l-1.08-1.54s-.11,0-.2,0h-1.19v1.54h-.98v-5.27h2.17c.46,0,.85,.08,1.19,.23,.34,.15,.6,.37,.78,.65,.18,.28,.27,.62,.27,1s-.1,.74-.29,1.02c-.19,.29-.47,.5-.83,.64l1.21,1.73h-1.05Zm-.35-4.17c-.22-.18-.54-.27-.97-.27h-1.14v2.1h1.14c.43,0,.75-.09,.97-.28,.22-.18,.33-.44,.33-.78s-.11-.59-.33-.78Z"/><path class="e" d="M235.8,67.09h.98v5.27h-.98v-5.27Z"/><path class="e" d="M239.41,72.27c-.38-.12-.68-.27-.9-.46l.34-.76c.22,.17,.48,.31,.79,.42,.31,.11,.63,.16,.94,.16,.39,0,.68-.06,.88-.19,.19-.12,.29-.29,.29-.5,0-.15-.05-.27-.16-.37-.11-.1-.24-.17-.41-.23-.17-.06-.39-.12-.68-.19-.4-.1-.73-.19-.98-.29-.25-.1-.46-.25-.64-.45s-.27-.48-.27-.82c0-.29,.08-.56,.24-.79,.16-.24,.4-.43,.72-.57,.32-.14,.71-.21,1.17-.21,.32,0,.64,.04,.95,.12,.31,.08,.58,.2,.81,.35l-.31,.76c-.23-.14-.47-.24-.72-.31s-.49-.11-.73-.11c-.39,0-.67,.07-.86,.2-.19,.13-.28,.3-.28,.52,0,.15,.05,.27,.16,.37,.11,.09,.24,.17,.41,.23s.39,.12,.68,.19c.39,.09,.71,.18,.96,.28,.25,.1,.47,.25,.64,.45,.18,.2,.27,.47,.27,.81,0,.29-.08,.55-.24,.79-.16,.24-.4,.42-.72,.56-.32,.14-.71,.21-1.17,.21-.41,0-.8-.06-1.18-.17Z"/><path class="e" d="M249.28,72.36v-3.49l-1.74,2.89h-.44l-1.73-2.84v3.45h-.93v-5.27h.81l2.09,3.49,2.06-3.49h.81v5.27h-.92Z"/><path class="e" d="M253.39,72.09c-.43-.23-.77-.56-1.02-.97-.25-.41-.37-.88-.37-1.39s.12-.97,.37-1.39c.25-.41,.58-.74,1.02-.97s.92-.35,1.45-.35,1.02,.12,1.45,.35c.43,.23,.77,.56,1.02,.97,.25,.41,.37,.88,.37,1.39s-.12,.98-.37,1.39c-.25,.41-.58,.73-1.02,.97-.43,.23-.92,.35-1.45,.35s-1.02-.12-1.45-.35Zm2.4-.75c.28-.16,.5-.38,.66-.66,.16-.28,.24-.6,.24-.95s-.08-.67-.24-.95-.38-.5-.66-.66c-.28-.16-.6-.24-.95-.24s-.67,.08-.95,.24c-.28,.16-.5,.38-.66,.66s-.24,.6-.24,.95,.08,.67,.24,.95c.16,.28,.38,.5,.66,.66,.28,.16,.6,.24,.95,.24s.67-.08,.95-.24Z"/><path class="e" d="M194.23,79.04v1.86h-.98v-1.84l-2.07-3.43h1.05l1.54,2.57,1.56-2.57h.96l-2.06,3.41Z"/><path class="e" d="M200.52,75.62h2.3c.56,0,1.06,.11,1.5,.33,.44,.22,.78,.53,1.02,.93,.24,.4,.36,.86,.36,1.38s-.12,.98-.36,1.38c-.24,.4-.58,.71-1.02,.93-.44,.22-.94,.33-1.5,.33h-2.3v-5.27Zm2.26,4.44c.39,0,.73-.07,1.02-.22,.29-.15,.52-.36,.68-.63,.16-.27,.24-.59,.24-.95s-.08-.68-.24-.95c-.16-.27-.38-.48-.68-.63-.29-.15-.63-.22-1.02-.22h-1.28v3.61h1.28Z"/><path class="e" d="M211.44,80.07v.82h-3.95v-5.27h3.85v.82h-2.87v1.37h2.54v.81h-2.54v1.45h2.97Z"/><path class="e" d="M214.26,80.62c-.43-.23-.77-.56-1.01-.97-.24-.41-.37-.88-.37-1.39s.12-.98,.37-1.39c.25-.41,.58-.73,1.01-.97s.91-.35,1.44-.35c.43,0,.83,.08,1.18,.23,.36,.15,.66,.37,.9,.66l-.63,.59c-.38-.41-.85-.62-1.41-.62-.36,0-.69,.08-.97,.24s-.51,.38-.67,.66c-.16,.28-.24,.6-.24,.96s.08,.67,.24,.96,.38,.5,.67,.66c.29,.16,.61,.24,.97,.24,.56,0,1.03-.21,1.41-.62l.63,.6c-.25,.29-.55,.5-.91,.66s-.75,.23-1.19,.23c-.53,0-1.01-.12-1.44-.35Z"/><path class="e" d="M220.38,80.62c-.43-.23-.77-.56-1.02-.97-.25-.41-.37-.88-.37-1.39s.12-.97,.37-1.39c.25-.41,.58-.74,1.02-.97s.92-.35,1.45-.35,1.02,.12,1.45,.35c.43,.23,.77,.56,1.02,.97,.25,.41,.37,.88,.37,1.39s-.12,.98-.37,1.39c-.25,.41-.58,.73-1.02,.97-.43,.23-.92,.35-1.45,.35s-1.02-.12-1.45-.35Zm2.4-.75c.28-.16,.5-.38,.66-.66,.16-.28,.24-.6,.24-.95s-.08-.67-.24-.95-.38-.5-.66-.66c-.28-.16-.6-.24-.95-.24s-.67,.08-.95,.24c-.28,.16-.5,.38-.66,.66s-.24,.6-.24,.95,.08,.67,.24,.95c.16,.28,.38,.5,.66,.66,.28,.16,.6,.24,.95,.24s.67-.08,.95-.24Z"/><path class="e" d="M229.91,80.89l-1.08-1.54s-.11,0-.2,0h-1.19v1.54h-.98v-5.27h2.17c.46,0,.85,.08,1.19,.23,.34,.15,.6,.37,.78,.65,.18,.28,.27,.62,.27,1s-.1,.74-.29,1.02c-.19,.29-.47,.5-.83,.64l1.21,1.73h-1.05Zm-.35-4.17c-.22-.18-.54-.27-.97-.27h-1.14v2.1h1.14c.43,0,.75-.09,.97-.28,.22-.18,.33-.44,.33-.78s-.11-.59-.33-.78Z"/><path class="e" d="M236.14,79.67h-2.63l-.52,1.22h-1.01l2.37-5.27h.96l2.38,5.27h-1.02l-.53-1.22Zm-.32-.77l-.99-2.3-.99,2.3h1.98Z"/><path class="e" d="M240.03,80.62c-.43-.23-.77-.56-1.01-.97-.24-.41-.37-.88-.37-1.39s.12-.98,.37-1.39c.25-.41,.58-.73,1.01-.97s.91-.35,1.44-.35c.43,0,.83,.08,1.18,.23,.36,.15,.66,.37,.9,.66l-.63,.59c-.38-.41-.85-.62-1.41-.62-.36,0-.69,.08-.97,.24s-.51,.38-.67,.66c-.16,.28-.24,.6-.24,.96s.08,.67,.24,.96,.38,.5,.67,.66c.29,.16,.61,.24,.97,.24,.56,0,1.03-.21,1.41-.62l.63,.6c-.25,.29-.55,.5-.91,.66s-.75,.23-1.19,.23c-.53,0-1.01-.12-1.44-.35Z"/><path class="e" d="M245.26,75.62h.98v5.27h-.98v-5.27Z"/><path class="e" d="M249.42,80.62c-.43-.23-.77-.56-1.02-.97-.25-.41-.37-.88-.37-1.39s.12-.97,.37-1.39c.25-.41,.58-.74,1.02-.97s.92-.35,1.45-.35,1.02,.12,1.45,.35c.43,.23,.77,.56,1.02,.97,.25,.41,.37,.88,.37,1.39s-.12,.98-.37,1.39c-.25,.41-.58,.73-1.02,.97-.43,.23-.92,.35-1.45,.35s-1.02-.12-1.45-.35Zm2.4-.75c.28-.16,.5-.38,.66-.66,.16-.28,.24-.6,.24-.95s-.08-.67-.24-.95-.38-.5-.66-.66c-.28-.16-.6-.24-.95-.24s-.67,.08-.95,.24c-.28,.16-.5,.38-.66,.66s-.24,.6-.24,.95,.08,.67,.24,.95c.16,.28,.38,.5,.66,.66,.28,.16,.6,.24,.95,.24s.67-.08,.95-.24Zm-.56-5.71h1.11l-1.31,1.03h-.81l1.02-1.03Z"/><path class="e" d="M260.19,75.62v5.27h-.81l-2.91-3.57v3.57h-.97v-5.27h.81l2.91,3.57v-3.57h.97Z"/></g><path class="e" d="M268.33,82.41c.25,.14,.44,.34,.58,.59s.21,.53,.21,.84-.07,.59-.21,.85c-.14,.25-.33,.45-.58,.59-.25,.14-.53,.21-.84,.21s-.6-.07-.85-.21c-.25-.14-.44-.34-.58-.59-.14-.25-.21-.54-.21-.85s.07-.59,.21-.84,.33-.45,.58-.59c.25-.14,.53-.21,.85-.21s.59,.07,.84,.21Zm.1,2.39c.24-.25,.36-.57,.36-.96s-.12-.71-.36-.96-.55-.37-.94-.37-.71,.12-.94,.37-.35,.57-.35,.96,.12,.71,.35,.96,.55,.37,.94,.37,.7-.12,.94-.37Zm-.31-.97c-.07,.09-.16,.15-.28,.19l.45,.67h-.51l-.39-.64h-.14v.65h-.42v-1.73h.77c.18,0,.33,.05,.44,.14,.11,.1,.17,.23,.17,.4,0,.13-.03,.24-.1,.33Zm-.86-.12h.33c.06,0,.11-.02,.15-.05s.06-.08,.06-.14-.02-.1-.06-.13c-.04-.03-.09-.04-.15-.04h-.33v.36Z"/><g><path class="e" d="M95.8,116.98H60.25s0-.05,0-.07c.16-1.47,.23-2.97,.23-4.46,0-9.91-3.38-19.54-9.54-27.26,0,0,0,.01-.01,.02,4.87,7.08,7.4,18.69,7.4,27.24,0,1.5-.08,3.02-.24,4.52H2.7V35.69L49.41,3.29l43.88,30.45-15.12,2.06,.04,.54h23.57L49.41,0,0,34.28V119.69H99.12v-18.39h-3.3l-.02,15.68ZM2.43,73.31c-.73,.26-1.46,.55-2.16,.86v-2.34c.69-.29,1.42-.56,2.16-.81v2.3Z"/><path class="e" d="M2.43,71.01v2.3c-.73,.26-1.46,.55-2.16,.86v-2.34c.69-.29,1.42-.56,2.16-.81Z"/></g><path class="e" d="M.26,71.82v2.34c.71-.31,1.43-.59,2.16-.86v-2.3c-.74,.26-1.47,.53-2.16,.81Z"/><path class="e" d="M14.33,68.7c-3.93,.21-7.79,.94-11.49,2.17l-.41,.14v2.29c.07-.02,.14-.04,.2-.07,3.96-1.89,3.08-2.22,11.7-4.5v-.03Z"/><g><path class="k" d="M1.34,117.68l.73,1.5c.42-.2,.82-.41,1.22-.62,6.32-3.3,11.2-7.61,14.96-12.17,.36-.43,.71-.86,1.04-1.3,.98-1.26,1.87-2.54,2.68-3.82,.58-.9,1.11-1.79,1.61-2.68,.11-.19,.22-.39,.32-.58,.18-.33,.35-.65,.52-.98,1.14-2.17,2.07-4.27,2.83-6.24,.06-.14,.1-.27,.16-.41,.15-.39,.29-.78,.43-1.17,.48-1.34,.9-2.65,1.26-3.91,.33-1.12,.6-2.19,.85-3.22,.91-3.82,1.29-6.88,1.45-8.61,.09-.92,.11-1.47,.11-1.55l-.69-.02h-.09l-.88-.03s-.02,.55-.11,1.48h0c-.2,2.09-.73,6.2-2.14,11.18-.48,1.69-1.06,3.48-1.76,5.32-.01,.03-.02,.07-.04,.1-.69,1.83-1.54,3.78-2.57,5.8-.26,.51-.53,1.03-.82,1.54-.52,.94-1.08,1.9-1.69,2.86-.33,.52-.67,1.05-1.03,1.57-.62,.9-1.28,1.81-1.98,2.7-.23,.29-.46,.58-.7,.87-3.75,4.57-8.67,8.88-15.09,12.11l-.58,.29Z"/><path class="k" d="M30.33,74.02l.57-.28c3.43-1.68,5.57-4.06,6.37-7.07,1.51-5.68-2.36-11.49-2.52-11.73l-.47-.7-.69,.48c-3.97,2.77-6.19,5.99-6.62,9.55-.62,5.16,2.8,9.1,2.94,9.27l.42,.48Zm3.49-17.4c.92,1.65,2.88,5.78,1.85,9.64-.63,2.34-2.27,4.25-4.89,5.68-.81-1.13-2.56-4.04-2.15-7.48,.35-2.85,2.09-5.49,5.2-7.84Z"/><path class="k" d="M26.06,88.75c.35-.02,.56-.05,.61-.06l.63-.09,.08-.63c.47-3.79-.35-6.89-2.43-9.2-3.93-4.37-10.9-4.31-11.2-4.3h-.84l.03,.86c.15,4.84,1.63,8.46,4.38,10.76,3.24,2.71,7.25,2.76,8.76,2.66Zm-11.43-12.59c1.88,.13,6.41,.75,9.08,3.72,1.62,1.81,2.32,4.23,2.08,7.21-1.39,.06-4.78-.06-7.44-2.29-2.2-1.85-3.45-4.75-3.73-8.64Z"/><path class="k" d="M27.26,87.89c.59-.95,1.21-1.81,1.85-2.58,2.15-2.55,4.6-4.08,7.32-4.56,1.03-.18,2.02-.2,2.94-.1,.59,.06,1.15,.16,1.69,.29,2.78,.68,4.67,2.15,4.79,2.24l.5,.39-.25,.59c-1.09,2.57-2.59,4.47-4.47,5.69-.51,.33-1.05,.61-1.61,.84-.2,.08-.41,.16-.62,.23-.88,.29-1.76,.44-2.64,.5-4.05,.26-7.81-1.59-8.9-2.19-.18-.1-.28-.16-.31-.18l-.73-.43,.45-.72Zm11.62,1.44c.35-.11,.69-.25,1.02-.41,.57-.28,1.1-.62,1.6-1.04,1.11-.92,2.04-2.18,2.79-3.75-.61-.39-1.72-1.01-3.12-1.42-.52-.16-1.09-.29-1.69-.36-.87-.11-1.81-.12-2.77,.05-2.83,.5-5.36,2.39-7.55,5.62,1.7,.83,5.93,2.55,9.72,1.31Z"/><path class="k" d="M5.91,87.76c.03-.27,.07-.53,.11-.8l.13-.83,.23,.04,.6,.1c.21,.04,3.54,.64,6.78,2.6,1.73,1.05,3.43,2.49,4.62,4.44,.13,.22,.26,.44,.37,.66,.68,1.32,1.07,2.76,1.17,4.3,.05,.85,.02,1.74-.1,2.65-.04,.26-.08,.52-.13,.79-.14,.71-.32,1.44-.56,2.18l-.03,.09-.16,.52h-.3l-.34-.03s-.26-.01-.6-.05c-.28-.03-.66-.09-1.1-.17-.23-.05-.49-.1-.76-.17-2.08-.52-5.06-1.7-7.27-4.4-2.41-2.94-3.31-6.95-2.67-11.92Zm3.95,10.85c2.18,2.68,5.34,3.65,7.13,4.01,.29,.06,.54,.1,.75,.13,.16-.57,.28-1.13,.37-1.68,.42-2.61,.04-4.91-1.15-6.88-1.03-1.7-2.55-2.97-4.11-3.91-2.05-1.23-4.17-1.89-5.31-2.18v.1c-.53,4.39,.25,7.89,2.32,10.42Z"/><path class="k" d="M18.65,104.48l.46-.5h0l.1-.11c.91-.99,1.84-1.86,2.78-2.61,.81-.65,1.63-1.2,2.46-1.65,.23-.13,.45-.24,.68-.35h0c.29-.14,.57-.27,.86-.39,1.57-.64,3.16-.95,4.77-.93,5.8,.07,9.65,4.43,9.81,4.61l.23,.26,.19,.22-.16,.24-.19,.29c-2.36,3.55-5.31,5.57-8.74,6.01-.07,0-.14,.02-.22,.02-.17,.02-.33,.03-.5,.04-.42,.03-.83,.03-1.24,.01-3.96-.16-7.48-2.24-9.31-3.55-.72-.51-1.19-.91-1.32-1.02-.01-.01-.02-.02-.03-.03l-.63-.56,.02-.02Zm10.64,3.46c.59,.07,1.19,.08,1.8,.04,.19-.01,.39-.03,.58-.06,2.76-.36,5.17-1.95,7.18-4.73-1.1-1.05-4.14-3.54-8.14-3.59-1.24-.02-2.48,.21-3.71,.66-.52,.19-1.03,.42-1.55,.69-.74,.4-1.49,.88-2.22,1.44-.74,.57-1.46,1.22-2.19,1.95,.16,.12,.35,.26,.57,.41,1.57,1.11,4.46,2.82,7.68,3.17Z"/></g></g></g></svg>